M48
;Layer_Color=9474304
;FILE_FORMAT=2:4
INCH,LZ
;TYPE=PLATED
T1F00S00C0.0118
T2F00S00C0.0157
T3F00S00C0.0197
T5F00S00C0.0300
T6F00S00C0.0354
%
T01
X01743Y00253
X01786Y00446
X01905Y0041
X0198Y00231
X02104Y00261
X0203Y0089
X01826Y00836
X01565Y0065
X012415Y005135
X01155Y00425
X0108Y0048
X00962Y00305
X0075Y0032
X00731Y00364
X00775Y00365
X008003Y004332
X004595Y003835
X00461Y00269
X00457Y00666
X00509Y00718
X00555Y007
X00608Y0071
X006521Y00738
X005573Y006377
X01026Y00835
X011541Y009248
X01185Y0094
X01197Y00276
X00105Y00344
X00535Y01005
X0063
X01215Y0095
X01736Y00976
T02
X01967Y00331
X02135Y0017
X0094Y00248
X01635Y00962
T03
X021377Y003095
Y005005
T05
X00235Y00105
X00335
X00435
X00535
Y0116
X00435
X00335
X00235
T06
X01535Y00105
X01635
X01735
X01835
X01935
X02035
X02135
X01435
X01335
X01235
X01135
X01035
X00935
X00835
X00735
X00635
X00105Y0047
Y0057
Y0067
Y0077
X00635Y0116
X00735
X00835
X00935
X01035
X01135
X01235
X01335
X01435
X01535
X01635
X01735
X01835
X01935
X02035
X02135
M30
