G04*
G04 #@! TF.GenerationSoftware,Altium Limited,Altium Designer,22.0.2 (36)*
G04*
G04 Layer_Color=8421504*
%FSLAX24Y24*%
%MOIN*%
G70*
G04*
G04 #@! TF.SameCoordinates,D96F1F73-0473-4D1D-A2DC-BC1745D11BA0*
G04*
G04*
G04 #@! TF.FilePolarity,Positive*
G04*
G01*
G75*
%ADD19R,0.0630X0.0138*%
%ADD20R,0.0787X0.0394*%
%ADD21R,0.0787X0.1969*%
%ADD22R,0.0300X0.0400*%
%ADD23R,0.0400X0.0300*%
G04:AMPARAMS|DCode=24|XSize=11mil|YSize=70.9mil|CornerRadius=0mil|HoleSize=0mil|Usage=FLASHONLY|Rotation=225.000|XOffset=0mil|YOffset=0mil|HoleType=Round|Shape=Round|*
%AMOVALD24*
21,1,0.0599,0.0110,0.0000,0.0000,315.0*
1,1,0.0110,-0.0212,0.0212*
1,1,0.0110,0.0212,-0.0212*
%
%ADD24OVALD24*%

G04:AMPARAMS|DCode=25|XSize=11mil|YSize=70.9mil|CornerRadius=0mil|HoleSize=0mil|Usage=FLASHONLY|Rotation=315.000|XOffset=0mil|YOffset=0mil|HoleType=Round|Shape=Round|*
%AMOVALD25*
21,1,0.0599,0.0110,0.0000,0.0000,45.0*
1,1,0.0110,-0.0212,-0.0212*
1,1,0.0110,0.0212,0.0212*
%
%ADD25OVALD25*%

%ADD26R,0.0300X0.0300*%
%ADD27P,0.0325X8X202.5*%
%ADD28R,0.0591X0.0984*%
%ADD29R,0.0300X0.0300*%
%ADD30P,0.0325X8X112.5*%
%ADD31R,0.0669X0.1220*%
%ADD32R,0.0669X0.0295*%
D19*
X21302Y4306D02*
D03*
Y4562D02*
D03*
Y3538D02*
D03*
Y4050D02*
D03*
Y3794D02*
D03*
D20*
X22440Y4400D02*
D03*
Y3700D02*
D03*
D21*
X3300Y4256D02*
D03*
Y7996D02*
D03*
D22*
X5100Y3835D02*
D03*
Y4565D02*
D03*
Y5770D02*
D03*
Y6500D02*
D03*
Y7735D02*
D03*
Y8465D02*
D03*
X20950Y6985D02*
D03*
Y7715D02*
D03*
Y9600D02*
D03*
Y8870D02*
D03*
X18600Y3565D02*
D03*
Y2835D02*
D03*
D23*
X4085Y10050D02*
D03*
X4815D02*
D03*
X13285Y8550D02*
D03*
X14015D02*
D03*
X20400Y2950D02*
D03*
X19670D02*
D03*
Y4100D02*
D03*
X20400D02*
D03*
Y5100D02*
D03*
X19670D02*
D03*
X16935Y3150D02*
D03*
X17665D02*
D03*
X16935Y4950D02*
D03*
X17665D02*
D03*
X11685Y4650D02*
D03*
X12415D02*
D03*
X11685Y3150D02*
D03*
X12415D02*
D03*
X11685Y3850D02*
D03*
X12415D02*
D03*
D24*
X10750Y6031D02*
D03*
X10611Y5892D02*
D03*
X10472Y5753D02*
D03*
X10333Y5613D02*
D03*
X10193Y5474D02*
D03*
X10054Y5335D02*
D03*
X9915Y5196D02*
D03*
X9776Y5057D02*
D03*
X9637Y4917D02*
D03*
X9497Y4778D02*
D03*
X9358Y4639D02*
D03*
X9219Y4500D02*
D03*
X6950Y6769D02*
D03*
X7089Y6908D02*
D03*
X7228Y7047D02*
D03*
X7367Y7187D02*
D03*
X7507Y7326D02*
D03*
X7646Y7465D02*
D03*
X7785Y7604D02*
D03*
X7924Y7743D02*
D03*
X8063Y7883D02*
D03*
X8203Y8022D02*
D03*
X8342Y8161D02*
D03*
X8481Y8300D02*
D03*
D25*
Y4500D02*
D03*
X8342Y4639D02*
D03*
X8203Y4778D02*
D03*
X8063Y4917D02*
D03*
X7924Y5057D02*
D03*
X7785Y5196D02*
D03*
X7646Y5335D02*
D03*
X7507Y5474D02*
D03*
X7367Y5613D02*
D03*
X7228Y5753D02*
D03*
X7089Y5892D02*
D03*
X6950Y6031D02*
D03*
X9219Y8300D02*
D03*
X9358Y8161D02*
D03*
X9497Y8022D02*
D03*
X9637Y7883D02*
D03*
X9776Y7743D02*
D03*
X9915Y7604D02*
D03*
X10054Y7465D02*
D03*
X10193Y7326D02*
D03*
X10333Y7187D02*
D03*
X10472Y7047D02*
D03*
X10611Y6908D02*
D03*
X10750Y6769D02*
D03*
D26*
X15656Y8550D02*
D03*
D27*
X15044D02*
D03*
D28*
X22688Y10150D02*
D03*
Y6750D02*
D03*
D29*
X18600Y4744D02*
D03*
D30*
Y5356D02*
D03*
D31*
X13250Y4200D02*
D03*
D32*
X15650Y5106D02*
D03*
Y4200D02*
D03*
Y3294D02*
D03*
M02*
