G04*
G04 #@! TF.GenerationSoftware,Altium Limited,Altium Designer,22.0.2 (36)*
G04*
G04 Layer_Color=16711935*
%FSLAX24Y24*%
%MOIN*%
G70*
G04*
G04 #@! TF.SameCoordinates,D96F1F73-0473-4D1D-A2DC-BC1745D11BA0*
G04*
G04*
G04 #@! TF.FilePolarity,Negative*
G04*
G01*
G75*
%ADD47R,0.0837X0.0641*%
%ADD48R,0.0641X0.0365*%
%ADD49C,0.0719*%
%ADD50R,0.0719X0.0719*%
%ADD51R,0.0719X0.0719*%
D47*
X22444Y2623D02*
D03*
Y5477D02*
D03*
D48*
X21377Y5005D02*
D03*
Y3095D02*
D03*
D49*
X1050Y4700D02*
D03*
Y5700D02*
D03*
Y6700D02*
D03*
X6350Y11600D02*
D03*
X7350D02*
D03*
X8350D02*
D03*
X9350D02*
D03*
X10350D02*
D03*
X11350D02*
D03*
X12350D02*
D03*
X13350D02*
D03*
X14350D02*
D03*
X15350D02*
D03*
X16350D02*
D03*
X17350D02*
D03*
X18350D02*
D03*
X19350D02*
D03*
X20350D02*
D03*
X5350D02*
D03*
X4350D02*
D03*
X3350D02*
D03*
X2350D02*
D03*
X6350Y1050D02*
D03*
X7350D02*
D03*
X8350D02*
D03*
X9350D02*
D03*
X10350D02*
D03*
X11350D02*
D03*
X12350D02*
D03*
X13350D02*
D03*
X14350D02*
D03*
X15350D02*
D03*
X16350D02*
D03*
X17350D02*
D03*
X18350D02*
D03*
X19350D02*
D03*
X20350D02*
D03*
X5350D02*
D03*
X4350D02*
D03*
X3350D02*
D03*
X2350D02*
D03*
D50*
X1050Y7700D02*
D03*
D51*
X21350Y11600D02*
D03*
Y1050D02*
D03*
M02*
