G04*
G04 #@! TF.GenerationSoftware,Altium Limited,Altium Designer,22.0.2 (36)*
G04*
G04 Layer_Color=128*
%FSLAX24Y24*%
%MOIN*%
G70*
G04*
G04 #@! TF.SameCoordinates,D96F1F73-0473-4D1D-A2DC-BC1745D11BA0*
G04*
G04*
G04 #@! TF.FilePolarity,Positive*
G04*
G01*
G75*
%ADD59C,0.0020*%
D59*
X22346Y2623D02*
X22542D01*
X22444Y2524D02*
Y2721D01*
X21279Y5005D02*
X21476D01*
X21377Y4906D02*
Y5103D01*
X21279Y3095D02*
X21476D01*
X21377Y2997D02*
Y3194D01*
X22346Y5477D02*
X22542D01*
X22444Y5379D02*
Y5576D01*
X873Y4700D02*
X1227D01*
X1050Y4523D02*
Y4877D01*
X873Y5700D02*
X1227D01*
X1050Y5523D02*
Y5877D01*
X873Y6700D02*
X1227D01*
X1050Y6523D02*
Y6877D01*
X873Y7700D02*
X1227D01*
X1050Y7523D02*
Y7877D01*
X6173Y11600D02*
X6527D01*
X6350Y11423D02*
Y11777D01*
X7173Y11600D02*
X7527D01*
X7350Y11423D02*
Y11777D01*
X8173Y11600D02*
X8527D01*
X8350Y11423D02*
Y11777D01*
X9173Y11600D02*
X9527D01*
X9350Y11423D02*
Y11777D01*
X10173Y11600D02*
X10527D01*
X10350Y11423D02*
Y11777D01*
X11173Y11600D02*
X11527D01*
X11350Y11423D02*
Y11777D01*
X12173Y11600D02*
X12527D01*
X12350Y11423D02*
Y11777D01*
X13173Y11600D02*
X13527D01*
X13350Y11423D02*
Y11777D01*
X14173Y11600D02*
X14527D01*
X14350Y11423D02*
Y11777D01*
X15173Y11600D02*
X15527D01*
X15350Y11423D02*
Y11777D01*
X16173Y11600D02*
X16527D01*
X16350Y11423D02*
Y11777D01*
X17173Y11600D02*
X17527D01*
X17350Y11423D02*
Y11777D01*
X18173Y11600D02*
X18527D01*
X18350Y11423D02*
Y11777D01*
X19173Y11600D02*
X19527D01*
X19350Y11423D02*
Y11777D01*
X20173Y11600D02*
X20527D01*
X20350Y11423D02*
Y11777D01*
X21173Y11600D02*
X21527D01*
X21350Y11423D02*
Y11777D01*
X5200Y11600D02*
X5500D01*
X5350Y11450D02*
Y11750D01*
X4200Y11600D02*
X4500D01*
X4350Y11450D02*
Y11750D01*
X3200Y11600D02*
X3500D01*
X3350Y11450D02*
Y11750D01*
X2200Y11600D02*
X2500D01*
X2350Y11450D02*
Y11750D01*
X6173Y1050D02*
X6527D01*
X6350Y873D02*
Y1227D01*
X7173Y1050D02*
X7527D01*
X7350Y873D02*
Y1227D01*
X8173Y1050D02*
X8527D01*
X8350Y873D02*
Y1227D01*
X9173Y1050D02*
X9527D01*
X9350Y873D02*
Y1227D01*
X10173Y1050D02*
X10527D01*
X10350Y873D02*
Y1227D01*
X11173Y1050D02*
X11527D01*
X11350Y873D02*
Y1227D01*
X12173Y1050D02*
X12527D01*
X12350Y873D02*
Y1227D01*
X13173Y1050D02*
X13527D01*
X13350Y873D02*
Y1227D01*
X14173Y1050D02*
X14527D01*
X14350Y873D02*
Y1227D01*
X15173Y1050D02*
X15527D01*
X15350Y873D02*
Y1227D01*
X16173Y1050D02*
X16527D01*
X16350Y873D02*
Y1227D01*
X17173Y1050D02*
X17527D01*
X17350Y873D02*
Y1227D01*
X18173Y1050D02*
X18527D01*
X18350Y873D02*
Y1227D01*
X19173Y1050D02*
X19527D01*
X19350Y873D02*
Y1227D01*
X20173Y1050D02*
X20527D01*
X20350Y873D02*
Y1227D01*
X21173Y1050D02*
X21527D01*
X21350Y873D02*
Y1227D01*
X5200Y1050D02*
X5500D01*
X5350Y900D02*
Y1200D01*
X4200Y1050D02*
X4500D01*
X4350Y900D02*
Y1200D01*
X3200Y1050D02*
X3500D01*
X3350Y900D02*
Y1200D01*
X2200Y1050D02*
X2500D01*
X2350Y900D02*
Y1200D01*
X20981Y2610D02*
X21099D01*
X21040Y2551D02*
Y2669D01*
X6462Y7380D02*
X6580D01*
X6521Y7321D02*
Y7439D01*
X6021Y7100D02*
X6139D01*
X6080Y7041D02*
Y7159D01*
X11491Y4250D02*
X11609D01*
X11550Y4191D02*
Y4309D01*
X7944Y4332D02*
X8062D01*
X8003Y4273D02*
Y4391D01*
X17801Y4460D02*
X17919D01*
X17860Y4401D02*
Y4519D01*
X18201Y8360D02*
X18319D01*
X18260Y8301D02*
Y8419D01*
X15591Y6500D02*
X15709D01*
X15650Y6441D02*
Y6559D01*
X7691Y3650D02*
X7809D01*
X7750Y3591D02*
Y3709D01*
X5491Y7000D02*
X5609D01*
X5550Y6941D02*
Y7059D01*
X4551Y2690D02*
X4669D01*
X4610Y2631D02*
Y2749D01*
X4511Y6660D02*
X4629D01*
X4570Y6601D02*
Y6719D01*
X17301Y9760D02*
X17419D01*
X17360Y9701D02*
Y9819D01*
X17371Y2530D02*
X17489D01*
X17430Y2471D02*
Y2589D01*
X11911Y2760D02*
X12029D01*
X11970Y2701D02*
Y2819D01*
X10201Y8350D02*
X10319D01*
X10260Y8291D02*
Y8409D01*
X4536Y3835D02*
X4654D01*
X4595Y3776D02*
Y3894D01*
X5031Y7180D02*
X5149D01*
X5090Y7121D02*
Y7239D01*
X991Y3440D02*
X1109D01*
X1050Y3381D02*
Y3499D01*
X18991Y4100D02*
X19109D01*
X19050Y4041D02*
Y4159D01*
X9321Y2480D02*
X9479D01*
X9400Y2401D02*
Y2559D01*
X19591Y3310D02*
X19749D01*
X19670Y3231D02*
Y3389D01*
X19741Y2310D02*
X19859D01*
X19800Y2251D02*
Y2369D01*
X21271Y1700D02*
X21429D01*
X21350Y1621D02*
Y1779D01*
X16271Y9620D02*
X16429D01*
X16350Y9541D02*
Y9699D01*
X11482Y9248D02*
X11600D01*
X11541Y9189D02*
Y9308D01*
X5514Y6377D02*
X5633D01*
X5573Y6317D02*
Y6436D01*
X10741Y4800D02*
X10859D01*
X10800Y4741D02*
Y4859D01*
X12356Y5135D02*
X12474D01*
X12415Y5076D02*
Y5194D01*
X9561Y3050D02*
X9679D01*
X9620Y2991D02*
Y3109D01*
X12091Y9500D02*
X12209D01*
X12150Y9441D02*
Y9559D01*
X11791Y9400D02*
X11909D01*
X11850Y9341D02*
Y9459D01*
X7441Y3200D02*
X7559D01*
X7500Y3141D02*
Y3259D01*
X7251Y3640D02*
X7369D01*
X7310Y3581D02*
Y3699D01*
X20241Y8900D02*
X20359D01*
X20300Y8841D02*
Y8959D01*
X6241Y10050D02*
X6359D01*
X6300Y9991D02*
Y10109D01*
X5291Y10050D02*
X5409D01*
X5350Y9991D02*
Y10109D01*
M02*
