G04*
G04 #@! TF.GenerationSoftware,Altium Limited,Altium Designer,22.0.2 (36)*
G04*
G04 Layer_Physical_Order=1*
G04 Layer_Color=255*
%FSLAX24Y24*%
%MOIN*%
G70*
G04*
G04 #@! TF.SameCoordinates,D96F1F73-0473-4D1D-A2DC-BC1745D11BA0*
G04*
G04*
G04 #@! TF.FilePolarity,Positive*
G04*
G01*
G75*
%ADD12C,0.0060*%
%ADD14C,0.0100*%
%ADD19R,0.0630X0.0138*%
%ADD20R,0.0787X0.0394*%
%ADD21R,0.0787X0.1969*%
%ADD22R,0.0300X0.0400*%
%ADD23R,0.0400X0.0300*%
G04:AMPARAMS|DCode=24|XSize=11mil|YSize=70.9mil|CornerRadius=0mil|HoleSize=0mil|Usage=FLASHONLY|Rotation=225.000|XOffset=0mil|YOffset=0mil|HoleType=Round|Shape=Round|*
%AMOVALD24*
21,1,0.0599,0.0110,0.0000,0.0000,315.0*
1,1,0.0110,-0.0212,0.0212*
1,1,0.0110,0.0212,-0.0212*
%
%ADD24OVALD24*%

G04:AMPARAMS|DCode=25|XSize=11mil|YSize=70.9mil|CornerRadius=0mil|HoleSize=0mil|Usage=FLASHONLY|Rotation=315.000|XOffset=0mil|YOffset=0mil|HoleType=Round|Shape=Round|*
%AMOVALD25*
21,1,0.0599,0.0110,0.0000,0.0000,45.0*
1,1,0.0110,-0.0212,-0.0212*
1,1,0.0110,0.0212,0.0212*
%
%ADD25OVALD25*%

%ADD26R,0.0300X0.0300*%
%ADD27P,0.0325X8X202.5*%
%ADD28R,0.0591X0.0984*%
%ADD29R,0.0300X0.0300*%
%ADD30P,0.0325X8X112.5*%
%ADD31R,0.0669X0.1220*%
%ADD32R,0.0669X0.0295*%
%ADD52R,0.0787X0.0591*%
%ADD53R,0.0591X0.0315*%
%ADD54C,0.0669*%
%ADD55R,0.0669X0.0669*%
%ADD56R,0.0669X0.0669*%
%ADD57C,0.0236*%
%ADD58C,0.0315*%
G36*
X23338Y12369D02*
X23393Y12314D01*
X23422Y12243D01*
Y12205D01*
Y394D01*
Y355D01*
X23393Y284D01*
X23338Y229D01*
X23267Y200D01*
X355D01*
X284Y229D01*
X229Y284D01*
X200Y355D01*
Y394D01*
Y12205D01*
Y12243D01*
X229Y12314D01*
X284Y12369D01*
X355Y12398D01*
X23267D01*
X23338Y12369D01*
D02*
G37*
%LPC*%
G36*
X20820Y12301D02*
X16880D01*
X16814Y12288D01*
X16759Y12251D01*
X16528Y12020D01*
X16525Y12022D01*
X16410Y12053D01*
X16290D01*
X16175Y12022D01*
X16072Y11962D01*
X15988Y11878D01*
X15928Y11775D01*
X15897Y11660D01*
Y11540D01*
X15928Y11425D01*
X15988Y11322D01*
X16072Y11238D01*
X16175Y11178D01*
X16290Y11147D01*
X16410D01*
X16525Y11178D01*
X16628Y11238D01*
X16712Y11322D01*
X16772Y11425D01*
X16803Y11540D01*
Y11660D01*
X16772Y11775D01*
X16770Y11778D01*
X16951Y11959D01*
X17023D01*
X17044Y11909D01*
X17002Y11867D01*
X16945Y11768D01*
X16915Y11657D01*
Y11650D01*
X17350D01*
X17785D01*
Y11657D01*
X17755Y11768D01*
X17698Y11867D01*
X17656Y11909D01*
X17677Y11959D01*
X18003D01*
X18022Y11912D01*
X17988Y11878D01*
X17928Y11775D01*
X17897Y11660D01*
Y11540D01*
X17914Y11478D01*
X16987Y10551D01*
X14600D01*
X14582Y10547D01*
X14557Y10593D01*
X15154Y11190D01*
X15175Y11178D01*
X15290Y11147D01*
X15410D01*
X15525Y11178D01*
X15628Y11238D01*
X15712Y11322D01*
X15772Y11425D01*
X15803Y11540D01*
Y11660D01*
X15772Y11775D01*
X15712Y11878D01*
X15628Y11962D01*
X15525Y12022D01*
X15410Y12053D01*
X15290D01*
X15175Y12022D01*
X15072Y11962D01*
X14988Y11878D01*
X14928Y11775D01*
X14897Y11660D01*
Y11540D01*
X14928Y11425D01*
X14940Y11404D01*
X13637Y10101D01*
X13130D01*
X13111Y10147D01*
X14154Y11190D01*
X14175Y11178D01*
X14290Y11147D01*
X14410D01*
X14525Y11178D01*
X14628Y11238D01*
X14712Y11322D01*
X14772Y11425D01*
X14803Y11540D01*
Y11660D01*
X14772Y11775D01*
X14712Y11878D01*
X14628Y11962D01*
X14525Y12022D01*
X14410Y12053D01*
X14290D01*
X14175Y12022D01*
X14072Y11962D01*
X13988Y11878D01*
X13928Y11775D01*
X13897Y11660D01*
Y11540D01*
X13928Y11425D01*
X13940Y11404D01*
X12787Y10251D01*
X12280D01*
X12261Y10297D01*
X13154Y11190D01*
X13175Y11178D01*
X13290Y11147D01*
X13410D01*
X13525Y11178D01*
X13628Y11238D01*
X13712Y11322D01*
X13772Y11425D01*
X13803Y11540D01*
Y11660D01*
X13772Y11775D01*
X13712Y11878D01*
X13628Y11962D01*
X13525Y12022D01*
X13410Y12053D01*
X13290D01*
X13175Y12022D01*
X13072Y11962D01*
X12988Y11878D01*
X12928Y11775D01*
X12897Y11660D01*
Y11540D01*
X12928Y11425D01*
X12940Y11404D01*
X12037Y10501D01*
X11534D01*
X11521Y10520D01*
X11515Y10551D01*
X12154Y11190D01*
X12175Y11178D01*
X12290Y11147D01*
X12410D01*
X12525Y11178D01*
X12628Y11238D01*
X12712Y11322D01*
X12772Y11425D01*
X12803Y11540D01*
Y11660D01*
X12772Y11775D01*
X12712Y11878D01*
X12628Y11962D01*
X12525Y12022D01*
X12410Y12053D01*
X12290D01*
X12175Y12022D01*
X12072Y11962D01*
X11988Y11878D01*
X11928Y11775D01*
X11897Y11660D01*
Y11540D01*
X11928Y11425D01*
X11940Y11404D01*
X11337Y10801D01*
X10830D01*
X10811Y10847D01*
X11154Y11190D01*
X11175Y11178D01*
X11290Y11147D01*
X11410D01*
X11525Y11178D01*
X11628Y11238D01*
X11712Y11322D01*
X11772Y11425D01*
X11803Y11540D01*
Y11660D01*
X11772Y11775D01*
X11712Y11878D01*
X11628Y11962D01*
X11525Y12022D01*
X11410Y12053D01*
X11290D01*
X11175Y12022D01*
X11072Y11962D01*
X10988Y11878D01*
X10928Y11775D01*
X10897Y11660D01*
Y11540D01*
X10928Y11425D01*
X10940Y11404D01*
X10467Y10931D01*
X9960D01*
X9941Y10977D01*
X10154Y11190D01*
X10175Y11178D01*
X10290Y11147D01*
X10410D01*
X10525Y11178D01*
X10628Y11238D01*
X10712Y11322D01*
X10772Y11425D01*
X10803Y11540D01*
Y11660D01*
X10772Y11775D01*
X10712Y11878D01*
X10628Y11962D01*
X10525Y12022D01*
X10410Y12053D01*
X10290D01*
X10175Y12022D01*
X10072Y11962D01*
X9988Y11878D01*
X9928Y11775D01*
X9897Y11660D01*
Y11540D01*
X9928Y11425D01*
X9940Y11404D01*
X9587Y11051D01*
X9080D01*
X9061Y11097D01*
X9154Y11190D01*
X9175Y11178D01*
X9290Y11147D01*
X9410D01*
X9525Y11178D01*
X9628Y11238D01*
X9712Y11322D01*
X9772Y11425D01*
X9803Y11540D01*
Y11660D01*
X9772Y11775D01*
X9712Y11878D01*
X9628Y11962D01*
X9525Y12022D01*
X9410Y12053D01*
X9290D01*
X9175Y12022D01*
X9072Y11962D01*
X8988Y11878D01*
X8928Y11775D01*
X8897Y11660D01*
Y11540D01*
X8928Y11425D01*
X8940Y11404D01*
X8547Y11011D01*
X8501Y11030D01*
Y11172D01*
X8525Y11178D01*
X8628Y11238D01*
X8712Y11322D01*
X8772Y11425D01*
X8803Y11540D01*
Y11660D01*
X8772Y11775D01*
X8712Y11878D01*
X8628Y11962D01*
X8525Y12022D01*
X8410Y12053D01*
X8290D01*
X8175Y12022D01*
X8072Y11962D01*
X7988Y11878D01*
X7928Y11775D01*
X7897Y11660D01*
Y11540D01*
X7928Y11425D01*
X7988Y11322D01*
X8072Y11238D01*
X8175Y11178D01*
X8199Y11172D01*
Y11001D01*
X7541Y10343D01*
X7495Y10368D01*
X7501Y10400D01*
X7501Y10400D01*
Y11172D01*
X7525Y11178D01*
X7628Y11238D01*
X7712Y11322D01*
X7772Y11425D01*
X7803Y11540D01*
Y11660D01*
X7772Y11775D01*
X7712Y11878D01*
X7628Y11962D01*
X7525Y12022D01*
X7410Y12053D01*
X7290D01*
X7175Y12022D01*
X7072Y11962D01*
X6988Y11878D01*
X6928Y11775D01*
X6897Y11660D01*
Y11540D01*
X6928Y11425D01*
X6988Y11322D01*
X7072Y11238D01*
X7175Y11178D01*
X7199Y11172D01*
Y10463D01*
X7128Y10391D01*
X7057Y10391D01*
X6971Y10477D01*
Y11130D01*
X6971Y11130D01*
X6960Y11187D01*
X6927Y11236D01*
X6760Y11404D01*
X6772Y11425D01*
X6803Y11540D01*
Y11660D01*
X6772Y11775D01*
X6712Y11878D01*
X6628Y11962D01*
X6525Y12022D01*
X6410Y12053D01*
X6290D01*
X6175Y12022D01*
X6072Y11962D01*
X5988Y11878D01*
X5928Y11775D01*
X5897Y11660D01*
Y11540D01*
X5928Y11425D01*
X5988Y11322D01*
X6072Y11238D01*
X6175Y11178D01*
X6290Y11147D01*
X6410D01*
X6525Y11178D01*
X6546Y11190D01*
X6669Y11067D01*
Y10415D01*
X6669Y10415D01*
X6681Y10357D01*
X6714Y10308D01*
X6849Y10173D01*
Y8262D01*
X6803Y8243D01*
X6451Y8595D01*
Y9867D01*
X6500Y9916D01*
X6536Y10003D01*
Y10097D01*
X6500Y10184D01*
X6434Y10250D01*
X6347Y10286D01*
X6253D01*
X6241Y10294D01*
Y10860D01*
X6241Y10860D01*
X6230Y10918D01*
X6197Y10967D01*
X5760Y11404D01*
X5772Y11425D01*
X5803Y11540D01*
Y11660D01*
X5772Y11775D01*
X5712Y11878D01*
X5628Y11962D01*
X5525Y12022D01*
X5410Y12053D01*
X5290D01*
X5175Y12022D01*
X5072Y11962D01*
X4988Y11878D01*
X4928Y11775D01*
X4897Y11660D01*
Y11540D01*
X4928Y11425D01*
X4958Y11373D01*
X4918Y11342D01*
X4785Y11475D01*
X4803Y11540D01*
Y11660D01*
X4772Y11775D01*
X4712Y11878D01*
X4628Y11962D01*
X4525Y12022D01*
X4410Y12053D01*
X4290D01*
X4175Y12022D01*
X4072Y11962D01*
X3988Y11878D01*
X3928Y11775D01*
X3897Y11660D01*
Y11540D01*
X3928Y11425D01*
X3988Y11322D01*
X4072Y11238D01*
X4175Y11178D01*
X4290Y11147D01*
X4410D01*
X4525Y11178D01*
X4608Y11226D01*
X5043Y10790D01*
X5043Y10790D01*
X5092Y10757D01*
X5150Y10746D01*
X5590D01*
X5649Y10687D01*
Y9401D01*
X5599Y9381D01*
X5558Y9408D01*
X5492Y9421D01*
X3351D01*
X2521Y10251D01*
Y11177D01*
X2525Y11178D01*
X2628Y11238D01*
X2712Y11322D01*
X2772Y11425D01*
X2803Y11540D01*
Y11660D01*
X2772Y11775D01*
X2712Y11878D01*
X2628Y11962D01*
X2525Y12022D01*
X2410Y12053D01*
X2290D01*
X2175Y12022D01*
X2072Y11962D01*
X1988Y11878D01*
X1928Y11775D01*
X1897Y11660D01*
Y11540D01*
X1928Y11425D01*
X1988Y11322D01*
X2072Y11238D01*
X2175Y11178D01*
X2179Y11177D01*
Y10251D01*
X929Y9001D01*
X892Y8946D01*
X879Y8880D01*
Y8153D01*
X597D01*
Y7247D01*
X1503D01*
Y8153D01*
X1221D01*
Y8809D01*
X2350Y9938D01*
X3139Y9148D01*
X3119Y9098D01*
X2788D01*
Y6894D01*
X3812D01*
Y8314D01*
X4720D01*
X4739Y8268D01*
X4653Y8182D01*
X4620Y8133D01*
X4609Y8075D01*
X4609Y8075D01*
Y6890D01*
X4609Y6890D01*
X4620Y6832D01*
X4653Y6783D01*
X4832Y6605D01*
Y6182D01*
X5368D01*
X5399Y6145D01*
Y6125D01*
X5368Y6088D01*
X4832D01*
Y5452D01*
X4949D01*
Y4883D01*
X4832D01*
Y4460D01*
X4778Y4407D01*
X3812D01*
Y5358D01*
X2788D01*
Y3153D01*
X3524D01*
X3544Y3107D01*
X2743Y2307D01*
X2710Y2258D01*
X2699Y2200D01*
X2699Y2200D01*
Y1613D01*
X2546Y1460D01*
X2525Y1472D01*
X2410Y1503D01*
X2290D01*
X2175Y1472D01*
X2072Y1412D01*
X1988Y1328D01*
X1928Y1225D01*
X1897Y1110D01*
Y990D01*
X1928Y875D01*
X1988Y772D01*
X2072Y688D01*
X2175Y628D01*
X2290Y597D01*
X2410D01*
X2525Y628D01*
X2628Y688D01*
X2712Y772D01*
X2772Y875D01*
X2803Y990D01*
Y1110D01*
X2772Y1225D01*
X2760Y1246D01*
X2957Y1443D01*
X2957Y1443D01*
X2990Y1492D01*
X3001Y1550D01*
X3001Y1550D01*
Y2137D01*
X3151Y2287D01*
X3159Y2286D01*
X3199Y2265D01*
Y1478D01*
X3175Y1472D01*
X3072Y1412D01*
X2988Y1328D01*
X2928Y1225D01*
X2897Y1110D01*
Y990D01*
X2928Y875D01*
X2988Y772D01*
X3072Y688D01*
X3175Y628D01*
X3290Y597D01*
X3410D01*
X3525Y628D01*
X3628Y688D01*
X3712Y772D01*
X3772Y875D01*
X3803Y990D01*
Y1110D01*
X3772Y1225D01*
X3712Y1328D01*
X3628Y1412D01*
X3525Y1472D01*
X3501Y1478D01*
Y2218D01*
X4232Y2949D01*
X5370D01*
X5389Y2903D01*
X5343Y2857D01*
X5310Y2808D01*
X5299Y2750D01*
X5299Y2750D01*
Y2063D01*
X4638Y1402D01*
X4628Y1412D01*
X4525Y1472D01*
X4410Y1503D01*
X4290D01*
X4175Y1472D01*
X4072Y1412D01*
X3988Y1328D01*
X3928Y1225D01*
X3897Y1110D01*
Y990D01*
X3928Y875D01*
X3988Y772D01*
X4072Y688D01*
X4175Y628D01*
X4290Y597D01*
X4410D01*
X4525Y628D01*
X4628Y688D01*
X4712Y772D01*
X4772Y875D01*
X4803Y990D01*
Y1110D01*
X4796Y1133D01*
X4872Y1208D01*
X4917Y1182D01*
X4897Y1110D01*
Y990D01*
X4928Y875D01*
X4988Y772D01*
X5072Y688D01*
X5175Y628D01*
X5290Y597D01*
X5410D01*
X5525Y628D01*
X5628Y688D01*
X5712Y772D01*
X5772Y875D01*
X5803Y990D01*
Y1110D01*
X5772Y1225D01*
X5760Y1246D01*
X5907Y1393D01*
X5940Y1442D01*
X5951Y1500D01*
Y2637D01*
X6153Y2839D01*
X6199Y2820D01*
Y1478D01*
X6175Y1472D01*
X6072Y1412D01*
X5988Y1328D01*
X5928Y1225D01*
X5897Y1110D01*
Y990D01*
X5928Y875D01*
X5988Y772D01*
X6072Y688D01*
X6175Y628D01*
X6290Y597D01*
X6410D01*
X6525Y628D01*
X6628Y688D01*
X6712Y772D01*
X6772Y875D01*
X6803Y990D01*
Y1110D01*
X6772Y1225D01*
X6712Y1328D01*
X6628Y1412D01*
X6525Y1472D01*
X6501Y1478D01*
Y1766D01*
X6520Y1779D01*
X6551Y1785D01*
X6998Y1338D01*
X6988Y1328D01*
X6928Y1225D01*
X6897Y1110D01*
Y990D01*
X6928Y875D01*
X6988Y772D01*
X7072Y688D01*
X7175Y628D01*
X7290Y597D01*
X7410D01*
X7525Y628D01*
X7628Y688D01*
X7712Y772D01*
X7772Y875D01*
X7803Y990D01*
Y1018D01*
X7849Y1037D01*
X7854Y1033D01*
X7854Y1033D01*
X7897Y1004D01*
Y990D01*
X7928Y875D01*
X7988Y772D01*
X8072Y688D01*
X8175Y628D01*
X8290Y597D01*
X8410D01*
X8525Y628D01*
X8628Y688D01*
X8712Y772D01*
X8772Y875D01*
X8803Y990D01*
Y1110D01*
X8772Y1225D01*
X8712Y1328D01*
X8628Y1412D01*
X8525Y1472D01*
X8410Y1503D01*
X8290D01*
X8175Y1472D01*
X8072Y1412D01*
X8022Y1362D01*
X7952Y1362D01*
X7251Y2063D01*
Y3053D01*
X7294Y3065D01*
X7301Y3065D01*
X7366Y3000D01*
X7453Y2964D01*
X7547D01*
X7634Y3000D01*
X7700Y3066D01*
X7736Y3153D01*
Y3247D01*
X7700Y3334D01*
X7686Y3348D01*
X7690Y3405D01*
X7703Y3414D01*
X7797D01*
X7884Y3450D01*
X7950Y3516D01*
X7986Y3603D01*
Y3697D01*
X7950Y3784D01*
X7901Y3833D01*
Y4313D01*
X7940Y4352D01*
X8001Y4342D01*
X8018Y4316D01*
X8070Y4281D01*
X8081Y4279D01*
X8079Y4269D01*
Y2568D01*
X8092Y2502D01*
X8129Y2447D01*
X8217Y2359D01*
X8272Y2322D01*
X8338Y2309D01*
X9182D01*
X9231Y2259D01*
X9294Y2223D01*
X9364Y2204D01*
X9433D01*
X10140Y1497D01*
X10134Y1448D01*
X10072Y1412D01*
X9988Y1328D01*
X9928Y1225D01*
X9897Y1110D01*
Y990D01*
X9928Y875D01*
X9988Y772D01*
X10072Y688D01*
X10175Y628D01*
X10290Y597D01*
X10410D01*
X10525Y628D01*
X10628Y688D01*
X10712Y772D01*
X10772Y875D01*
X10803Y990D01*
Y1110D01*
X10772Y1225D01*
X10712Y1328D01*
X10628Y1412D01*
X10525Y1472D01*
X10521Y1473D01*
Y1530D01*
X10508Y1596D01*
X10485Y1631D01*
X10523Y1663D01*
X10940Y1246D01*
X10928Y1225D01*
X10897Y1110D01*
Y990D01*
X10928Y875D01*
X10988Y772D01*
X11072Y688D01*
X11175Y628D01*
X11290Y597D01*
X11410D01*
X11525Y628D01*
X11628Y688D01*
X11712Y772D01*
X11772Y875D01*
X11803Y990D01*
Y1110D01*
X11772Y1225D01*
X11712Y1328D01*
X11628Y1412D01*
X11564Y1449D01*
X11578Y1499D01*
X11687D01*
X11940Y1246D01*
X11928Y1225D01*
X11897Y1110D01*
Y990D01*
X11928Y875D01*
X11988Y772D01*
X12072Y688D01*
X12175Y628D01*
X12290Y597D01*
X12410D01*
X12525Y628D01*
X12628Y688D01*
X12712Y772D01*
X12772Y875D01*
X12803Y990D01*
Y1110D01*
X12772Y1225D01*
X12712Y1328D01*
X12628Y1412D01*
X12525Y1472D01*
X12410Y1503D01*
X12290D01*
X12175Y1472D01*
X12154Y1460D01*
X12041Y1573D01*
X12060Y1619D01*
X12567D01*
X12940Y1246D01*
X12928Y1225D01*
X12897Y1110D01*
Y990D01*
X12928Y875D01*
X12988Y772D01*
X13072Y688D01*
X13175Y628D01*
X13290Y597D01*
X13410D01*
X13525Y628D01*
X13628Y688D01*
X13712Y772D01*
X13772Y875D01*
X13803Y990D01*
Y1110D01*
X13783Y1182D01*
X13828Y1208D01*
X13903Y1133D01*
X13897Y1110D01*
Y990D01*
X13928Y875D01*
X13988Y772D01*
X14072Y688D01*
X14175Y628D01*
X14290Y597D01*
X14410D01*
X14525Y628D01*
X14628Y688D01*
X14712Y772D01*
X14772Y875D01*
X14803Y990D01*
Y1110D01*
X14772Y1225D01*
X14712Y1328D01*
X14628Y1412D01*
X14525Y1472D01*
X14410Y1503D01*
X14290D01*
X14175Y1472D01*
X14072Y1412D01*
X14062Y1402D01*
X13611Y1853D01*
X13630Y1899D01*
X14287D01*
X14940Y1246D01*
X14928Y1225D01*
X14897Y1110D01*
Y990D01*
X14928Y875D01*
X14988Y772D01*
X15072Y688D01*
X15175Y628D01*
X15290Y597D01*
X15410D01*
X15525Y628D01*
X15628Y688D01*
X15712Y772D01*
X15772Y875D01*
X15803Y990D01*
Y1110D01*
X15772Y1225D01*
X15712Y1328D01*
X15628Y1412D01*
X15525Y1472D01*
X15410Y1503D01*
X15290D01*
X15175Y1472D01*
X15154Y1460D01*
X14611Y2003D01*
X14630Y2049D01*
X15137D01*
X15940Y1246D01*
X15928Y1225D01*
X15897Y1110D01*
Y990D01*
X15928Y875D01*
X15988Y772D01*
X16072Y688D01*
X16175Y628D01*
X16290Y597D01*
X16410D01*
X16525Y628D01*
X16628Y688D01*
X16712Y772D01*
X16772Y875D01*
X16803Y990D01*
Y1110D01*
X16772Y1225D01*
X16712Y1328D01*
X16628Y1412D01*
X16525Y1472D01*
X16410Y1503D01*
X16290D01*
X16175Y1472D01*
X16154Y1460D01*
X15491Y2123D01*
X15510Y2169D01*
X16017D01*
X16940Y1246D01*
X16928Y1225D01*
X16897Y1110D01*
Y990D01*
X16928Y875D01*
X16988Y772D01*
X17072Y688D01*
X17175Y628D01*
X17290Y597D01*
X17410D01*
X17525Y628D01*
X17628Y688D01*
X17712Y772D01*
X17772Y875D01*
X17803Y990D01*
Y1110D01*
X17772Y1225D01*
X17712Y1328D01*
X17628Y1412D01*
X17525Y1472D01*
X17410Y1503D01*
X17290D01*
X17175Y1472D01*
X17154Y1460D01*
X16261Y2353D01*
X16280Y2399D01*
X16787D01*
X17940Y1246D01*
X17928Y1225D01*
X17897Y1110D01*
Y990D01*
X17928Y875D01*
X17988Y772D01*
X18072Y688D01*
X18175Y628D01*
X18290Y597D01*
X18410D01*
X18525Y628D01*
X18628Y688D01*
X18712Y772D01*
X18772Y875D01*
X18803Y990D01*
Y1110D01*
X18772Y1225D01*
X18712Y1328D01*
X18628Y1412D01*
X18525Y1472D01*
X18410Y1503D01*
X18290D01*
X18175Y1472D01*
X18154Y1460D01*
X16957Y2657D01*
X16908Y2690D01*
X16850Y2701D01*
X16850Y2701D01*
X11582D01*
X11433Y2850D01*
X11454Y2900D01*
X11585D01*
Y3150D01*
Y3400D01*
X11396D01*
Y3600D01*
X11585D01*
Y3850D01*
X11785D01*
Y3600D01*
X11985D01*
Y3922D01*
X12031Y3941D01*
X12097Y3876D01*
Y3582D01*
X12244D01*
Y3418D01*
X12097D01*
Y2882D01*
X12733D01*
Y3277D01*
X12783Y3304D01*
X12794Y3296D01*
X12859Y3283D01*
X13752D01*
X13818Y3296D01*
X13873Y3334D01*
X14569Y4029D01*
X15197D01*
Y3934D01*
X15860D01*
X16481Y3314D01*
X16536Y3277D01*
X16602Y3264D01*
X16635D01*
Y3250D01*
X17235D01*
Y3264D01*
X17347D01*
Y2882D01*
X17494D01*
Y2844D01*
X17507Y2778D01*
X17544Y2722D01*
X17602Y2664D01*
X17658Y2627D01*
X17724Y2614D01*
X18332D01*
Y2517D01*
X18626D01*
X19179Y1964D01*
Y1473D01*
X19175Y1472D01*
X19072Y1412D01*
X18988Y1328D01*
X18928Y1225D01*
X18897Y1110D01*
Y990D01*
X18928Y875D01*
X18988Y772D01*
X19072Y688D01*
X19175Y628D01*
X19290Y597D01*
X19410D01*
X19525Y628D01*
X19628Y688D01*
X19712Y772D01*
X19772Y875D01*
X19803Y990D01*
Y1110D01*
X19772Y1225D01*
X19712Y1328D01*
X19628Y1412D01*
X19525Y1472D01*
X19521Y1473D01*
Y1864D01*
X20329D01*
X20394Y1877D01*
X20450Y1914D01*
X20721Y2185D01*
X20758Y2241D01*
X20771Y2306D01*
Y2489D01*
X21021Y2739D01*
X21058Y2794D01*
X21067Y2838D01*
X21327D01*
Y3095D01*
X21377D01*
Y3145D01*
X21772D01*
Y3353D01*
X21817Y3367D01*
X21851D01*
X21917Y3380D01*
X21952Y3403D01*
X22340D01*
Y3700D01*
Y3997D01*
X22081D01*
Y4103D01*
X22340D01*
Y4400D01*
Y4697D01*
X22081D01*
Y5082D01*
X22394D01*
Y5477D01*
Y5872D01*
X22081D01*
Y5981D01*
X22068Y6047D01*
X22031Y6103D01*
X21973Y6161D01*
X21917Y6198D01*
X21851Y6211D01*
X20721D01*
X20141Y6791D01*
Y8659D01*
X20191Y8689D01*
X20253Y8664D01*
X20347D01*
X20434Y8700D01*
X20483Y8749D01*
X20682D01*
Y8552D01*
X20799D01*
Y8033D01*
X20682D01*
Y7397D01*
X21218D01*
Y8033D01*
X21101D01*
Y8552D01*
X21218D01*
Y8678D01*
X21240Y8719D01*
X21298Y8730D01*
X21347Y8763D01*
X22229Y9645D01*
X22275Y9626D01*
Y9540D01*
X23102D01*
Y10760D01*
X22275D01*
Y10119D01*
X21264Y9108D01*
X21218Y9127D01*
Y9188D01*
X20682D01*
Y9051D01*
X20483D01*
X20434Y9100D01*
X20347Y9136D01*
X20253D01*
X20191Y9111D01*
X20141Y9141D01*
Y10669D01*
X20471Y10999D01*
X20508Y11054D01*
X20521Y11120D01*
Y11177D01*
X20525Y11178D01*
X20628Y11238D01*
X20712Y11322D01*
X20772Y11425D01*
X20803Y11540D01*
Y11660D01*
X20772Y11775D01*
X20712Y11878D01*
X20678Y11912D01*
X20697Y11959D01*
X20749D01*
X20897Y11810D01*
Y11147D01*
X21179D01*
Y10121D01*
X20976Y9918D01*
X20682D01*
Y9282D01*
X21218D01*
Y9676D01*
X21471Y9929D01*
X21508Y9984D01*
X21521Y10050D01*
Y11147D01*
X21803D01*
Y12053D01*
X21140D01*
X20941Y12251D01*
X20886Y12288D01*
X20820Y12301D01*
D02*
G37*
G36*
X3407Y12035D02*
X3400D01*
Y11650D01*
X3785D01*
Y11657D01*
X3755Y11768D01*
X3698Y11867D01*
X3617Y11948D01*
X3518Y12005D01*
X3407Y12035D01*
D02*
G37*
G36*
X3300D02*
X3293D01*
X3182Y12005D01*
X3083Y11948D01*
X3002Y11867D01*
X2945Y11768D01*
X2915Y11657D01*
Y11650D01*
X3300D01*
Y12035D01*
D02*
G37*
G36*
X17785Y11550D02*
X17400D01*
Y11165D01*
X17407D01*
X17518Y11195D01*
X17617Y11252D01*
X17698Y11333D01*
X17755Y11432D01*
X17785Y11543D01*
Y11550D01*
D02*
G37*
G36*
X17300D02*
X16915D01*
Y11543D01*
X16945Y11432D01*
X17002Y11333D01*
X17083Y11252D01*
X17182Y11195D01*
X17293Y11165D01*
X17300D01*
Y11550D01*
D02*
G37*
G36*
X3785D02*
X3400D01*
Y11165D01*
X3407D01*
X3518Y11195D01*
X3617Y11252D01*
X3698Y11333D01*
X3755Y11432D01*
X3785Y11543D01*
Y11550D01*
D02*
G37*
G36*
X3300D02*
X2915D01*
Y11543D01*
X2945Y11432D01*
X3002Y11333D01*
X3083Y11252D01*
X3182Y11195D01*
X3293Y11165D01*
X3300D01*
Y11550D01*
D02*
G37*
G36*
X4385Y10300D02*
X4185D01*
Y10150D01*
X4385D01*
Y10300D01*
D02*
G37*
G36*
X3985D02*
X3785D01*
Y10150D01*
X3985D01*
Y10300D01*
D02*
G37*
G36*
X5133Y10318D02*
X4497D01*
Y9782D01*
X5133D01*
Y9862D01*
X5183Y9883D01*
X5216Y9850D01*
X5303Y9814D01*
X5397D01*
X5484Y9850D01*
X5550Y9916D01*
X5586Y10003D01*
Y10097D01*
X5550Y10184D01*
X5484Y10250D01*
X5397Y10286D01*
X5303D01*
X5216Y10250D01*
X5183Y10217D01*
X5133Y10238D01*
Y10318D01*
D02*
G37*
G36*
X4385Y9950D02*
X4185D01*
Y9800D01*
X4385D01*
Y9950D01*
D02*
G37*
G36*
X3985D02*
X3785D01*
Y9800D01*
X3985D01*
Y9950D01*
D02*
G37*
G36*
X21200Y7285D02*
X21050D01*
Y7085D01*
X21200D01*
Y7285D01*
D02*
G37*
G36*
X20850D02*
X20700D01*
Y7085D01*
X20850D01*
Y7285D01*
D02*
G37*
G36*
X23084Y7342D02*
X22788D01*
Y6850D01*
X23084D01*
Y7342D01*
D02*
G37*
G36*
X22588D02*
X22293D01*
Y6850D01*
X22588D01*
Y7342D01*
D02*
G37*
G36*
X21200Y6885D02*
X21050D01*
Y6685D01*
X21200D01*
Y6885D01*
D02*
G37*
G36*
X20850D02*
X20700D01*
Y6685D01*
X20850D01*
Y6885D01*
D02*
G37*
G36*
X1110Y7153D02*
X990D01*
X875Y7122D01*
X772Y7062D01*
X688Y6978D01*
X628Y6875D01*
X597Y6760D01*
Y6640D01*
X628Y6525D01*
X688Y6422D01*
X772Y6338D01*
X875Y6278D01*
X990Y6247D01*
X1110D01*
X1225Y6278D01*
X1328Y6338D01*
X1412Y6422D01*
X1472Y6525D01*
X1503Y6640D01*
Y6760D01*
X1472Y6875D01*
X1412Y6978D01*
X1328Y7062D01*
X1225Y7122D01*
X1110Y7153D01*
D02*
G37*
G36*
X23084Y6650D02*
X22788D01*
Y6158D01*
X23084D01*
Y6650D01*
D02*
G37*
G36*
X22588D02*
X22293D01*
Y6158D01*
X22588D01*
Y6650D01*
D02*
G37*
G36*
X22938Y5872D02*
X22494D01*
Y5527D01*
X22938D01*
Y5872D01*
D02*
G37*
G36*
X1110Y6153D02*
X990D01*
X875Y6122D01*
X772Y6062D01*
X688Y5978D01*
X628Y5875D01*
X597Y5760D01*
Y5640D01*
X628Y5525D01*
X688Y5422D01*
X772Y5338D01*
X875Y5278D01*
X990Y5247D01*
X1110D01*
X1225Y5278D01*
X1328Y5338D01*
X1412Y5422D01*
X1472Y5525D01*
X1503Y5640D01*
Y5760D01*
X1472Y5875D01*
X1412Y5978D01*
X1328Y6062D01*
X1225Y6122D01*
X1110Y6153D01*
D02*
G37*
G36*
X22938Y5427D02*
X22494D01*
Y5082D01*
X22938D01*
Y5427D01*
D02*
G37*
G36*
X1107Y5135D02*
X1100D01*
Y4750D01*
X1485D01*
Y4757D01*
X1455Y4868D01*
X1398Y4967D01*
X1317Y5048D01*
X1218Y5105D01*
X1107Y5135D01*
D02*
G37*
G36*
X1000D02*
X993D01*
X882Y5105D01*
X783Y5048D01*
X702Y4967D01*
X645Y4868D01*
X615Y4757D01*
Y4750D01*
X1000D01*
Y5135D01*
D02*
G37*
G36*
X22934Y4697D02*
X22540D01*
Y4500D01*
X22934D01*
Y4697D01*
D02*
G37*
G36*
X1485Y4650D02*
X1100D01*
Y4265D01*
X1107D01*
X1218Y4295D01*
X1317Y4352D01*
X1398Y4433D01*
X1455Y4532D01*
X1485Y4643D01*
Y4650D01*
D02*
G37*
G36*
X1000D02*
X615D01*
Y4643D01*
X645Y4532D01*
X702Y4433D01*
X783Y4352D01*
X882Y4295D01*
X993Y4265D01*
X1000D01*
Y4650D01*
D02*
G37*
G36*
X22934Y4300D02*
X22540D01*
Y4103D01*
X22934D01*
Y4300D01*
D02*
G37*
G36*
Y3997D02*
X22540D01*
Y3800D01*
X22934D01*
Y3997D01*
D02*
G37*
G36*
Y3600D02*
X22540D01*
Y3403D01*
X22934D01*
Y3600D01*
D02*
G37*
G36*
X16085Y3542D02*
X15750D01*
Y3394D01*
X16085D01*
Y3542D01*
D02*
G37*
G36*
X15550D02*
X15215D01*
Y3394D01*
X15550D01*
Y3542D01*
D02*
G37*
G36*
X11985Y3400D02*
X11785D01*
Y3250D01*
X11985D01*
Y3400D01*
D02*
G37*
G36*
X16085Y3194D02*
X15750D01*
Y3047D01*
X16085D01*
Y3194D01*
D02*
G37*
G36*
X15550D02*
X15215D01*
Y3047D01*
X15550D01*
Y3194D01*
D02*
G37*
G36*
X17235Y3050D02*
X17035D01*
Y2900D01*
X17235D01*
Y3050D01*
D02*
G37*
G36*
X16835D02*
X16635D01*
Y2900D01*
X16835D01*
Y3050D01*
D02*
G37*
G36*
X11985D02*
X11785D01*
Y2900D01*
X11985D01*
Y3050D01*
D02*
G37*
G36*
X21772Y3045D02*
X21427D01*
Y2838D01*
X21772D01*
Y3045D01*
D02*
G37*
G36*
X22938Y3018D02*
X22494D01*
Y2673D01*
X22938D01*
Y3018D01*
D02*
G37*
G36*
X22394D02*
X21950D01*
Y2673D01*
X22394D01*
Y3018D01*
D02*
G37*
G36*
X22938Y2573D02*
X22494D01*
Y2228D01*
X22938D01*
Y2573D01*
D02*
G37*
G36*
X22394D02*
X21950D01*
Y2228D01*
X22394D01*
Y2573D01*
D02*
G37*
G36*
X20407Y1485D02*
X20400D01*
Y1100D01*
X20785D01*
Y1107D01*
X20755Y1218D01*
X20698Y1317D01*
X20617Y1398D01*
X20518Y1455D01*
X20407Y1485D01*
D02*
G37*
G36*
X9407D02*
X9400D01*
Y1100D01*
X9785D01*
Y1107D01*
X9755Y1218D01*
X9698Y1317D01*
X9617Y1398D01*
X9518Y1455D01*
X9407Y1485D01*
D02*
G37*
G36*
X20300D02*
X20293D01*
X20182Y1455D01*
X20083Y1398D01*
X20002Y1317D01*
X19945Y1218D01*
X19915Y1107D01*
Y1100D01*
X20300D01*
Y1485D01*
D02*
G37*
G36*
X9300D02*
X9293D01*
X9182Y1455D01*
X9083Y1398D01*
X9002Y1317D01*
X8945Y1218D01*
X8915Y1107D01*
Y1100D01*
X9300D01*
Y1485D01*
D02*
G37*
G36*
X20785Y1000D02*
X20400D01*
Y615D01*
X20407D01*
X20518Y645D01*
X20617Y702D01*
X20698Y783D01*
X20755Y882D01*
X20785Y993D01*
Y1000D01*
D02*
G37*
G36*
X20300D02*
X19915D01*
Y993D01*
X19945Y882D01*
X20002Y783D01*
X20083Y702D01*
X20182Y645D01*
X20293Y615D01*
X20300D01*
Y1000D01*
D02*
G37*
G36*
X9785D02*
X9400D01*
Y615D01*
X9407D01*
X9518Y645D01*
X9617Y702D01*
X9698Y783D01*
X9755Y882D01*
X9785Y993D01*
Y1000D01*
D02*
G37*
G36*
X9300D02*
X8915D01*
Y993D01*
X8945Y882D01*
X9002Y783D01*
X9083Y702D01*
X9182Y645D01*
X9293Y615D01*
X9300D01*
Y1000D01*
D02*
G37*
G36*
X21386Y1976D02*
X21314D01*
X21244Y1957D01*
X21181Y1921D01*
X21129Y1869D01*
X21093Y1806D01*
X21074Y1736D01*
Y1664D01*
X21093Y1594D01*
X21117Y1553D01*
X21090Y1503D01*
X20897D01*
Y597D01*
X21803D01*
Y1503D01*
X21610D01*
X21583Y1553D01*
X21607Y1594D01*
X21626Y1664D01*
Y1736D01*
X21607Y1806D01*
X21571Y1869D01*
X21519Y1921D01*
X21456Y1957D01*
X21386Y1976D01*
D02*
G37*
%LPD*%
G36*
X20022Y11912D02*
X19988Y11878D01*
X19928Y11775D01*
X19897Y11660D01*
Y11540D01*
X19928Y11425D01*
X19930Y11422D01*
X18139Y9631D01*
X18102Y9576D01*
X18089Y9510D01*
Y8523D01*
X18060Y8494D01*
X18024Y8407D01*
Y8313D01*
X18060Y8226D01*
X18126Y8160D01*
X18213Y8124D01*
X18307D01*
X18394Y8160D01*
X18460Y8226D01*
X18496Y8313D01*
Y8407D01*
X18460Y8494D01*
X18431Y8523D01*
Y9439D01*
X19751Y10759D01*
X19788Y10744D01*
X19799Y10735D01*
Y6720D01*
X19812Y6654D01*
X19849Y6599D01*
X20529Y5919D01*
X20584Y5882D01*
X20650Y5869D01*
X21739D01*
Y5262D01*
X21427D01*
Y5005D01*
X21377D01*
Y4955D01*
X20982D01*
Y4832D01*
X20932Y4819D01*
X20907Y4857D01*
X20907Y4857D01*
X20718Y5045D01*
Y5368D01*
X20082D01*
Y4832D01*
X20505D01*
X20649Y4687D01*
Y4368D01*
X20151D01*
Y4450D01*
X20140Y4508D01*
X20107Y4557D01*
X20107Y4557D01*
X19878Y4786D01*
X19897Y4832D01*
X19988D01*
Y5368D01*
X19352D01*
Y4832D01*
X19519D01*
Y4780D01*
X19519Y4780D01*
X19530Y4722D01*
X19563Y4673D01*
X19818Y4418D01*
X19798Y4368D01*
X19352D01*
Y4251D01*
X19233D01*
X19184Y4300D01*
X19097Y4336D01*
X19003D01*
X18916Y4300D01*
X18850Y4234D01*
X18814Y4147D01*
Y4053D01*
X18850Y3966D01*
X18893Y3923D01*
X18862Y3883D01*
X18751D01*
Y4476D01*
X18868D01*
Y5012D01*
X18332D01*
Y4476D01*
X18449D01*
Y3883D01*
X18332D01*
Y3401D01*
X18197D01*
X18042Y3556D01*
X17987Y3593D01*
X17921Y3606D01*
X16673D01*
X16103Y4177D01*
Y4410D01*
X16451Y4759D01*
X16488Y4814D01*
X16501Y4880D01*
Y7876D01*
X16488Y7942D01*
X16451Y7997D01*
X15924Y8524D01*
Y8576D01*
X16471Y9123D01*
X16508Y9179D01*
X16521Y9244D01*
Y9402D01*
X16571Y9451D01*
X16607Y9514D01*
X16626Y9584D01*
Y9656D01*
X16607Y9726D01*
X16571Y9789D01*
X16519Y9841D01*
X16456Y9877D01*
X16386Y9896D01*
X16314D01*
X16244Y9877D01*
X16181Y9841D01*
X16129Y9789D01*
X16093Y9726D01*
X16074Y9656D01*
Y9584D01*
X16093Y9514D01*
X16129Y9451D01*
X16179Y9402D01*
Y9315D01*
X15682Y8818D01*
X15388D01*
Y8282D01*
X15682D01*
X16159Y7805D01*
Y4991D01*
X16153Y4988D01*
X16103Y5014D01*
Y5371D01*
X15821D01*
Y6337D01*
X15850Y6366D01*
X15886Y6453D01*
Y6547D01*
X15850Y6634D01*
X15784Y6700D01*
X15697Y6736D01*
X15603D01*
X15516Y6700D01*
X15450Y6634D01*
X15414Y6547D01*
Y6453D01*
X15450Y6366D01*
X15479Y6337D01*
Y5371D01*
X15197D01*
Y4840D01*
X15982D01*
X16001Y4794D01*
X15673Y4466D01*
X15197D01*
Y4371D01*
X14498D01*
X14432Y4358D01*
X14376Y4321D01*
X13749Y3694D01*
X13703Y3713D01*
Y4928D01*
X12797D01*
Y3868D01*
X12747Y3842D01*
X12733Y3852D01*
Y4118D01*
X12339D01*
X12239Y4218D01*
Y4382D01*
X12733D01*
Y4918D01*
X12603D01*
X12582Y4968D01*
X12615Y5001D01*
X12651Y5088D01*
Y5182D01*
X12615Y5269D01*
X12549Y5335D01*
X12462Y5371D01*
X12368D01*
X12281Y5335D01*
X12278Y5332D01*
X12231Y5343D01*
X12225Y5350D01*
X12189Y5403D01*
X12133Y5441D01*
X12068Y5454D01*
X11570D01*
X11101Y5922D01*
X11087Y5944D01*
X10663Y6367D01*
X10662Y6368D01*
X10654Y6387D01*
X10654Y6413D01*
X10662Y6432D01*
X10663Y6433D01*
X11087Y6856D01*
X11125Y6913D01*
X11138Y6981D01*
X11125Y7048D01*
X11087Y7105D01*
X11080Y7110D01*
X11075Y7160D01*
X12314Y8399D01*
X12967D01*
Y8282D01*
X13603D01*
Y8818D01*
X12967D01*
Y8701D01*
X12404D01*
X12385Y8747D01*
X12887Y9249D01*
X13950D01*
X13950Y9249D01*
X14008Y9260D01*
X14057Y9293D01*
X14813Y10049D01*
X17950D01*
X17950Y10049D01*
X18008Y10060D01*
X18057Y10093D01*
X19154Y11190D01*
X19175Y11178D01*
X19290Y11147D01*
X19410D01*
X19525Y11178D01*
X19628Y11238D01*
X19712Y11322D01*
X19772Y11425D01*
X19803Y11540D01*
Y11660D01*
X19772Y11775D01*
X19712Y11878D01*
X19678Y11912D01*
X19697Y11959D01*
X20003D01*
X20022Y11912D01*
D02*
G37*
G36*
X12675Y9780D02*
X12681Y9749D01*
X12432Y9500D01*
X12386Y9519D01*
Y9547D01*
X12350Y9634D01*
X12284Y9700D01*
X12197Y9736D01*
X12103D01*
X12016Y9700D01*
X11950Y9634D01*
X11943Y9617D01*
X11897Y9636D01*
X11803D01*
X11716Y9600D01*
X11650Y9534D01*
X11623Y9470D01*
X11588Y9485D01*
X11494D01*
X11407Y9449D01*
X11340Y9382D01*
X11304Y9295D01*
Y9217D01*
X10149Y8061D01*
X10100Y8066D01*
X10099Y8067D01*
X10048Y8101D01*
X10022Y8106D01*
X10011Y8162D01*
X9973Y8219D01*
X9967Y8223D01*
X9962Y8273D01*
X11488Y9799D01*
X12662D01*
X12675Y9780D01*
D02*
G37*
G36*
X6777Y7285D02*
X6772Y7236D01*
X6766Y7232D01*
X6762Y7225D01*
X6747Y7224D01*
X6703Y7227D01*
X6657Y7258D01*
X6591Y7271D01*
X6512D01*
X6457Y7326D01*
X6456Y7327D01*
X5751Y8032D01*
Y8245D01*
X5798Y8264D01*
X6777Y7285D01*
D02*
G37*
G36*
X5409Y8124D02*
Y7961D01*
X5422Y7895D01*
X5459Y7839D01*
X6213Y7085D01*
X6214Y7084D01*
X6320Y6978D01*
X6375Y6941D01*
X6441Y6928D01*
X6520D01*
X6617Y6831D01*
X6673Y6794D01*
X6676Y6793D01*
X7037Y6433D01*
X7048Y6425D01*
Y6375D01*
X7037Y6367D01*
X6613Y5944D01*
X6575Y5887D01*
X6571Y5866D01*
X5443Y4738D01*
X5418Y4700D01*
X5368Y4713D01*
Y4883D01*
X5251D01*
Y5452D01*
X5368D01*
Y5619D01*
X5420D01*
X5420Y5619D01*
X5478Y5630D01*
X5527Y5663D01*
X5657Y5793D01*
X5657Y5793D01*
X5690Y5842D01*
X5701Y5900D01*
X5701Y5900D01*
Y6174D01*
X5707Y6176D01*
X5774Y6243D01*
X5810Y6330D01*
Y6424D01*
X5774Y6510D01*
X5707Y6577D01*
X5692Y6583D01*
X5690Y6592D01*
X5701Y6650D01*
X5701Y6650D01*
Y6817D01*
X5750Y6866D01*
X5786Y6953D01*
Y7047D01*
X5750Y7134D01*
X5684Y7200D01*
X5597Y7236D01*
X5503D01*
X5416Y7200D01*
X5350Y7134D01*
X5314Y7047D01*
Y6953D01*
X5350Y6866D01*
X5327Y6818D01*
X5045D01*
X4911Y6953D01*
Y7435D01*
X5000D01*
Y7735D01*
Y8035D01*
X4999D01*
X4980Y8081D01*
X5045Y8147D01*
X5368D01*
X5409Y8124D01*
D02*
G37*
G36*
X4850Y4059D02*
Y3935D01*
X5100D01*
Y3735D01*
X4850D01*
Y3535D01*
X4814Y3501D01*
X4000D01*
X4000Y3501D01*
X3942Y3490D01*
X3893Y3457D01*
X3893Y3457D01*
X3858Y3422D01*
X3812Y3441D01*
Y4105D01*
X4803D01*
X4850Y4059D01*
D02*
G37*
%LPC*%
G36*
X15178Y8818D02*
X14910D01*
X14793Y8701D01*
X14333D01*
Y8818D01*
X13697D01*
Y8282D01*
X14333D01*
Y8399D01*
X14793D01*
X14910Y8282D01*
X15178D01*
X15312Y8416D01*
Y8684D01*
X15178Y8818D01*
D02*
G37*
G36*
X18725Y5606D02*
X18700D01*
Y5456D01*
X18850D01*
Y5481D01*
X18725Y5606D01*
D02*
G37*
G36*
X18500D02*
X18475D01*
X18350Y5481D01*
Y5456D01*
X18500D01*
Y5606D01*
D02*
G37*
G36*
X18850Y5256D02*
X18700D01*
Y5106D01*
X18725D01*
X18850Y5231D01*
Y5256D01*
D02*
G37*
G36*
X18500D02*
X18350D01*
Y5231D01*
X18475Y5106D01*
X18500D01*
Y5256D01*
D02*
G37*
G36*
X21327Y5262D02*
X20982D01*
Y5055D01*
X21327D01*
Y5262D01*
D02*
G37*
G36*
X17235Y5200D02*
X17035D01*
Y5050D01*
X17235D01*
Y5200D01*
D02*
G37*
G36*
X16835D02*
X16635D01*
Y5050D01*
X16835D01*
Y5200D01*
D02*
G37*
G36*
X17235Y4850D02*
X17035D01*
Y4700D01*
X17235D01*
Y4850D01*
D02*
G37*
G36*
X16835D02*
X16635D01*
Y4700D01*
X16835D01*
Y4850D01*
D02*
G37*
G36*
X17983Y5218D02*
X17347D01*
Y4682D01*
X17494D01*
Y4655D01*
X17507Y4589D01*
X17544Y4534D01*
X17624Y4454D01*
Y4413D01*
X17660Y4326D01*
X17726Y4260D01*
X17813Y4224D01*
X17907D01*
X17994Y4260D01*
X18060Y4326D01*
X18096Y4413D01*
Y4507D01*
X18060Y4594D01*
X18011Y4643D01*
X17983Y4682D01*
Y5218D01*
D02*
G37*
G36*
X5350Y8035D02*
X5200D01*
Y7835D01*
X5350D01*
Y8035D01*
D02*
G37*
G36*
Y7635D02*
X5200D01*
Y7435D01*
X5350D01*
Y7635D01*
D02*
G37*
%LPD*%
D12*
X21437Y4601D02*
Y5005D01*
X21398Y4562D02*
X21437Y4601D01*
X21362Y4562D02*
X21398D01*
X21362Y4306D02*
Y4562D01*
X21040Y2643D02*
X21172Y2775D01*
Y2968D01*
X21040Y2610D02*
Y2643D01*
X6521Y7380D02*
X6555Y7346D01*
X6651D01*
X7089Y6908D01*
X5962Y7180D02*
X6042Y7100D01*
X6080D01*
X5800Y8476D02*
Y10750D01*
Y8476D02*
X7186Y7090D01*
X11550Y4250D02*
Y4530D01*
X11670Y4650D01*
X11685D01*
X10514Y5710D02*
X11245Y4979D01*
Y2825D02*
Y4979D01*
Y2825D02*
X11520Y2550D01*
X7750Y3650D02*
Y4376D01*
X7931Y4557D01*
X7981D01*
X8003Y4332D02*
X8021D01*
X8328Y4639D01*
X7981Y4557D02*
X8167Y4743D01*
X8328Y4639D02*
X8342D01*
X16935Y5222D02*
X17069Y5356D01*
X16935Y4950D02*
Y5222D01*
X17069Y5356D02*
X18600D01*
X20950Y7715D02*
Y8870D01*
X22707Y10068D02*
X22788Y10150D01*
X21299Y3095D02*
X21437D01*
X21172Y2968D02*
X21299Y3095D01*
X20350Y2300D02*
X20400Y2350D01*
Y2950D01*
X19810Y2300D02*
X20350D01*
X9776Y7743D02*
X10226Y8193D01*
Y8316D01*
X10260Y8350D01*
X11685Y4650D02*
Y4818D01*
X10611Y5892D02*
X11685Y4818D01*
X5550Y6650D02*
Y7000D01*
X5090Y7725D02*
X5100Y7735D01*
X5090Y7180D02*
Y7725D01*
X4760Y6890D02*
Y8075D01*
Y6890D02*
X5100Y6550D01*
X4760Y8075D02*
X5100Y8415D01*
X17430Y2530D02*
Y2705D01*
X16985Y3150D02*
X17430Y2705D01*
X16935Y3150D02*
X16985D01*
X22553Y6985D02*
X22788Y6750D01*
Y6553D02*
Y6750D01*
X22406Y2623D02*
X22504D01*
X22500Y2627D02*
X22504Y2623D01*
X21362Y4306D02*
X21608D01*
X22500Y5473D02*
X22504Y5477D01*
X22500Y4400D02*
Y5473D01*
Y3700D02*
Y4400D01*
X15650Y3294D02*
X15837D01*
X11744Y2760D02*
X11970D01*
X11685Y2819D02*
Y3150D01*
Y2819D02*
X11744Y2760D01*
X4595Y3835D02*
X5100D01*
X1050Y3440D02*
Y4700D01*
X5653Y10897D02*
X5800Y10750D01*
X19050Y4100D02*
X19670D01*
X11100Y2800D02*
Y4846D01*
X10120Y2680D02*
X11030Y1770D01*
X10400Y2900D02*
X11250Y2050D01*
X9950Y2650D02*
X10950Y1650D01*
X10250Y2750D02*
Y4582D01*
X11100Y1900D02*
X13350D01*
X10250Y2750D02*
X11100Y1900D01*
X10550Y2950D02*
Y4839D01*
X10950Y1650D02*
X11750D01*
X10400Y2900D02*
Y4711D01*
X9830Y2570D02*
X11350Y1050D01*
X11030Y1770D02*
X12630D01*
X11100Y2800D02*
X11580Y2320D01*
X11520Y2550D02*
X16850D01*
X11300Y2200D02*
X15200D01*
X9950Y2650D02*
Y4326D01*
X10550Y2950D02*
X11300Y2200D01*
X11250Y2050D02*
X14350D01*
X11580Y2320D02*
X16080D01*
X9830Y2570D02*
Y4152D01*
X10120Y2680D02*
Y4434D01*
X12630Y1770D02*
X13350Y1050D01*
X16080Y2320D02*
X17350Y1050D01*
X14350Y2050D02*
X15350Y1050D01*
X16850Y2550D02*
X18350Y1050D01*
X13350Y1900D02*
X14200Y1050D01*
X15200Y2200D02*
X16350Y1050D01*
X20350Y2950D02*
X20400D01*
X19800Y2310D02*
X19810Y2300D01*
X14750Y10200D02*
X17950D01*
X14600Y10400D02*
X17050D01*
X18250Y11600D01*
X13850Y9650D02*
X14600Y10400D01*
X17950Y10200D02*
X19350Y11600D01*
X13950Y9400D02*
X14750Y10200D01*
X18250Y11600D02*
X18350D01*
X22520Y10150D02*
X22788D01*
X20950Y8870D02*
X21240D01*
X22520Y10150D01*
X20920Y8900D02*
X20950Y8870D01*
X11850Y9261D02*
Y9400D01*
X12150Y9282D02*
Y9500D01*
X10236Y7368D02*
X12150Y9282D01*
X12128Y9478D02*
X12150Y9500D01*
X11831Y9381D02*
X11850Y9400D01*
X10096Y7507D02*
X11850Y9261D01*
X9957Y7646D02*
Y7656D01*
X11541Y9239D02*
Y9248D01*
X9957Y7656D02*
X11541Y9239D01*
X5100Y8415D02*
Y8465D01*
X3300Y8101D02*
X3664Y8465D01*
X5100D01*
X3300Y7996D02*
Y8101D01*
X5100Y6500D02*
Y6550D01*
Y6500D02*
X5400D01*
X5550Y6650D01*
Y5900D02*
Y6353D01*
X5573Y6377D01*
X5420Y5770D02*
X5550Y5900D01*
X5100Y5770D02*
X5420D01*
X10375Y5571D02*
X11100Y4846D01*
X10096Y5293D02*
X10550Y4839D01*
X10236Y5432D02*
X10800Y4868D01*
Y4800D02*
Y4868D01*
X5150Y10897D02*
X5653D01*
X4350Y11600D02*
X4447D01*
X5150Y10897D01*
X9818Y5014D02*
X10250Y4582D01*
X9957Y5154D02*
X10400Y4711D01*
X9540Y4736D02*
X9950Y4326D01*
X9679Y4875D02*
X10120Y4434D01*
X12415Y4650D02*
Y5135D01*
X13700Y9950D02*
X15350Y11600D01*
X11426Y9950D02*
X13700D01*
X9540Y8064D02*
X11426Y9950D01*
X9650Y3080D02*
Y4069D01*
X9400Y4581D02*
X9830Y4152D01*
X9620Y3050D02*
X9650Y3080D01*
X7520Y3200D02*
Y4370D01*
X20000Y3300D02*
X20350Y2950D01*
X20000Y3300D02*
Y4450D01*
X19670Y4780D02*
X20000Y4450D01*
X19670Y4780D02*
Y5100D01*
X6350Y1050D02*
Y4318D01*
X12824Y9400D02*
X13950D01*
X10653Y6952D02*
X12251Y8550D01*
X10653Y6950D02*
Y6952D01*
X12251Y8550D02*
X13285D01*
X10375Y7229D02*
X12796Y9650D01*
X13850D01*
X10514Y7090D02*
X12824Y9400D01*
X5100Y4565D02*
Y5770D01*
X14015Y8550D02*
X15044D01*
X14015Y8550D02*
X14015Y8550D01*
X5100Y4515D02*
Y4565D01*
X3300Y4256D02*
X4841D01*
X5100Y4515D01*
X7310Y4442D02*
X7889Y5022D01*
X7310Y3640D02*
Y4442D01*
X7961Y1139D02*
X8260D01*
X7520Y4370D02*
X8028Y4878D01*
X7100Y4511D02*
X7750Y5161D01*
X7100Y2000D02*
Y4511D01*
X8260Y1139D02*
X8350Y1050D01*
X7100Y2000D02*
X7961Y1139D01*
X7500Y8446D02*
Y9750D01*
X7350Y8318D02*
X7882Y7786D01*
X7350Y8318D02*
Y9939D01*
X8315Y10904D01*
X7500Y8446D02*
X8021Y7925D01*
X7500Y9750D02*
X9350Y11600D01*
X7650Y8574D02*
X8160Y8064D01*
X7650Y9730D02*
X8820Y10900D01*
X7650Y8574D02*
Y9730D01*
X8028Y4878D02*
Y4882D01*
X12850Y10100D02*
X14350Y11600D01*
X9400Y8203D02*
X11297Y10100D01*
X12850D01*
X11269Y10350D02*
X12100D01*
X13350Y11600D01*
X9261Y8342D02*
X11269Y10350D01*
X8909Y10650D02*
X11400D01*
X12350Y11600D01*
X7950Y9691D02*
X8909Y10650D01*
X10530Y10780D02*
X11350Y11600D01*
X8869Y10780D02*
X10530D01*
X9650Y10900D02*
X10350Y11600D01*
X8820Y10900D02*
X9650D01*
X7950Y8831D02*
Y9691D01*
X7800Y8703D02*
Y9711D01*
X8869Y10780D01*
X8315Y10904D02*
X8315D01*
X8350Y10939D01*
Y11600D01*
X7950Y8831D02*
X8439Y8342D01*
X7800Y8703D02*
X8300Y8203D01*
X9400Y4581D02*
Y4597D01*
X6650Y1900D02*
Y4339D01*
X7350Y1050D02*
Y1200D01*
X6650Y1900D02*
X7350Y1200D01*
X6650Y4339D02*
X7611Y5300D01*
X6350Y4318D02*
X7472Y5439D01*
X18600Y3565D02*
Y4744D01*
X18600Y4744D01*
X20400Y5100D02*
X20450D01*
X20800Y4750D01*
Y4150D02*
Y4750D01*
X20900Y4050D02*
X21362D01*
X20800Y4150D02*
X20900Y4050D01*
X20400Y4100D02*
X20450D01*
X20756Y3794D01*
X21362D01*
X20300Y8900D02*
X20920D01*
X5800Y1500D02*
Y2700D01*
X5350Y1050D02*
X5800Y1500D01*
X4500Y1050D02*
X5450Y2000D01*
Y2750D01*
X5800Y2700D02*
X6150Y3050D01*
X5450Y2750D02*
X6000Y3300D01*
X6090Y8464D02*
X7325Y7229D01*
X5350Y11600D02*
X6090Y10860D01*
X6300Y8532D02*
Y10050D01*
Y8532D02*
X7464Y7368D01*
X6090Y8464D02*
Y10860D01*
X4815Y10050D02*
X5350D01*
X9261Y4458D02*
X9650Y4069D01*
X7000Y8111D02*
Y10235D01*
Y8111D02*
X7604Y7507D01*
X14200Y1050D02*
X14350D01*
X11750Y1650D02*
X12350Y1050D01*
X2850Y2200D02*
X4000Y3350D01*
X2350Y1050D02*
X2850Y1550D01*
X4000Y3350D02*
X5450D01*
X2850Y1550D02*
Y2200D01*
X4170Y3100D02*
X5500D01*
X3350Y1050D02*
Y2280D01*
X4170Y3100D01*
X5500D02*
X5750Y3350D01*
X6150Y3050D02*
Y4396D01*
X7332Y5578D01*
X6000Y3300D02*
Y4524D01*
X7193Y5717D01*
X4350Y1050D02*
X4500D01*
X5750Y3350D02*
Y4553D01*
X7054Y5857D01*
X5550Y3450D02*
Y4631D01*
X5450Y3350D02*
X5550Y3450D01*
Y4631D02*
X6915Y5996D01*
X6820Y10415D02*
Y11130D01*
Y10415D02*
X7000Y10235D01*
X6350Y11600D02*
X6820Y11130D01*
X7350Y10400D02*
Y11600D01*
X7200Y8189D02*
Y10250D01*
X7350Y10400D01*
X7200Y8189D02*
X7743Y7646D01*
D14*
X8718Y6731D02*
X9030Y6419D01*
X8710Y6740D02*
X8718Y6731D01*
Y6740D01*
Y4782D02*
Y6731D01*
X8400Y6430D02*
X8710Y6740D01*
Y6956D01*
X9637Y7883D01*
X8695Y4758D02*
X8718Y4782D01*
X8695Y4713D02*
Y4758D01*
X8481Y4500D02*
X8695Y4713D01*
X7299Y6430D02*
X8400D01*
X7173Y6555D02*
X7299Y6430D01*
X6950Y6769D02*
X7163Y6555D01*
X7173D01*
X16880Y12130D02*
X20820D01*
X16350Y11600D02*
X16880Y12130D01*
X20820D02*
X21350Y11600D01*
X6335Y7205D02*
X6441Y7099D01*
X6591D01*
X6335Y7205D02*
Y7206D01*
X6591Y7099D02*
X6738Y6952D01*
X5580Y7961D02*
Y9162D01*
Y7961D02*
X6335Y7206D01*
X8250Y2568D02*
X8338Y2480D01*
X9400D01*
X8250Y4269D02*
X8481Y4500D01*
X8250Y2568D02*
Y4269D01*
X17665Y4655D02*
Y4950D01*
Y4655D02*
X17860Y4460D01*
X18260Y8360D02*
Y9510D01*
X20350Y11600D01*
X19970Y10740D02*
X20350Y11120D01*
Y11600D01*
X19970Y6720D02*
Y10740D01*
X20650Y6040D02*
X21851D01*
X18260Y8360D02*
X18287Y8333D01*
X19970Y6720D02*
X20650Y6040D01*
X15650Y5106D02*
Y6500D01*
X21851Y6040D02*
X21910Y5981D01*
Y3597D02*
Y5981D01*
X21851Y3538D02*
X21910Y3597D01*
X21362Y3538D02*
X21851D01*
X19350Y2035D02*
X20329D01*
X20600Y2306D01*
Y2560D01*
X20900Y2860D01*
Y3322D01*
X21116Y3538D01*
X21362D01*
X17724Y2785D02*
X18600D01*
X17665Y2844D02*
X17724Y2785D01*
X17665Y2844D02*
Y3150D01*
X18600Y2785D02*
X19350Y2035D01*
Y1050D02*
Y2035D01*
X8481Y4500D02*
Y4500D01*
X10401Y6381D02*
Y6419D01*
X10750Y6031D02*
Y6031D01*
X10401Y6381D02*
X10750Y6031D01*
X10401Y6419D02*
X10750Y6769D01*
X9030Y6419D02*
X10401D01*
X10750Y6769D02*
X10750D01*
Y6031D02*
X11499Y5282D01*
X1050Y8880D02*
X2350Y10180D01*
Y11600D01*
Y10180D02*
X3280Y9250D01*
X5492D01*
X1050Y7700D02*
Y8880D01*
X11499Y5282D02*
X12068D01*
X12415Y3850D02*
X12464D01*
X12859Y3455D01*
X12068Y4147D02*
Y5282D01*
Y4147D02*
X12365Y3850D01*
X10350Y1050D02*
Y1530D01*
X9400Y2480D02*
X10350Y1530D01*
X5492Y9250D02*
X5580Y9162D01*
X17921Y3435D02*
X18126Y3230D01*
X18828D02*
X18908Y3310D01*
X18126Y3230D02*
X18828D01*
X18908Y3310D02*
X19670D01*
X15837Y4200D02*
X16602Y3435D01*
X17921D01*
X15650Y4200D02*
X15837D01*
X15656Y8550D02*
X16330Y7876D01*
X15650Y4200D02*
X16330Y4880D01*
Y7876D01*
X15656Y8550D02*
X16350Y9244D01*
X14498Y4200D02*
X15650D01*
X12859Y3455D02*
X13752D01*
X12365Y3850D02*
X12415D01*
Y3150D02*
Y3850D01*
X13752Y3455D02*
X14498Y4200D01*
X19670Y2950D02*
Y3310D01*
X21350Y1050D02*
Y1700D01*
X16350Y9244D02*
Y9620D01*
X20950Y9650D02*
X21350Y10050D01*
X20950Y9600D02*
Y9650D01*
X21350Y10050D02*
Y11600D01*
D19*
X21302Y4306D02*
D03*
Y4562D02*
D03*
Y3538D02*
D03*
Y4050D02*
D03*
Y3794D02*
D03*
D20*
X22440Y4400D02*
D03*
Y3700D02*
D03*
D21*
X3300Y4256D02*
D03*
Y7996D02*
D03*
D22*
X5100Y3835D02*
D03*
Y4565D02*
D03*
Y5770D02*
D03*
Y6500D02*
D03*
Y7735D02*
D03*
Y8465D02*
D03*
X20950Y6985D02*
D03*
Y7715D02*
D03*
Y9600D02*
D03*
Y8870D02*
D03*
X18600Y3565D02*
D03*
Y2835D02*
D03*
D23*
X4085Y10050D02*
D03*
X4815D02*
D03*
X13285Y8550D02*
D03*
X14015D02*
D03*
X20400Y2950D02*
D03*
X19670D02*
D03*
Y4100D02*
D03*
X20400D02*
D03*
Y5100D02*
D03*
X19670D02*
D03*
X16935Y3150D02*
D03*
X17665D02*
D03*
X16935Y4950D02*
D03*
X17665D02*
D03*
X11685Y4650D02*
D03*
X12415D02*
D03*
X11685Y3150D02*
D03*
X12415D02*
D03*
X11685Y3850D02*
D03*
X12415D02*
D03*
D24*
X10750Y6031D02*
D03*
X10611Y5892D02*
D03*
X10472Y5753D02*
D03*
X10333Y5613D02*
D03*
X10193Y5474D02*
D03*
X10054Y5335D02*
D03*
X9915Y5196D02*
D03*
X9776Y5057D02*
D03*
X9637Y4917D02*
D03*
X9497Y4778D02*
D03*
X9358Y4639D02*
D03*
X9219Y4500D02*
D03*
X6950Y6769D02*
D03*
X7089Y6908D02*
D03*
X7228Y7047D02*
D03*
X7367Y7187D02*
D03*
X7507Y7326D02*
D03*
X7646Y7465D02*
D03*
X7785Y7604D02*
D03*
X7924Y7743D02*
D03*
X8063Y7883D02*
D03*
X8203Y8022D02*
D03*
X8342Y8161D02*
D03*
X8481Y8300D02*
D03*
D25*
Y4500D02*
D03*
X8342Y4639D02*
D03*
X8203Y4778D02*
D03*
X8063Y4917D02*
D03*
X7924Y5057D02*
D03*
X7785Y5196D02*
D03*
X7646Y5335D02*
D03*
X7507Y5474D02*
D03*
X7367Y5613D02*
D03*
X7228Y5753D02*
D03*
X7089Y5892D02*
D03*
X6950Y6031D02*
D03*
X9219Y8300D02*
D03*
X9358Y8161D02*
D03*
X9497Y8022D02*
D03*
X9637Y7883D02*
D03*
X9776Y7743D02*
D03*
X9915Y7604D02*
D03*
X10054Y7465D02*
D03*
X10193Y7326D02*
D03*
X10333Y7187D02*
D03*
X10472Y7047D02*
D03*
X10611Y6908D02*
D03*
X10750Y6769D02*
D03*
D26*
X15656Y8550D02*
D03*
D27*
X15044D02*
D03*
D28*
X22688Y10150D02*
D03*
Y6750D02*
D03*
D29*
X18600Y4744D02*
D03*
D30*
Y5356D02*
D03*
D31*
X13250Y4200D02*
D03*
D32*
X15650Y5106D02*
D03*
Y4200D02*
D03*
Y3294D02*
D03*
D52*
X22444Y2623D02*
D03*
Y5477D02*
D03*
D53*
X21377Y5005D02*
D03*
Y3095D02*
D03*
D54*
X1050Y4700D02*
D03*
Y5700D02*
D03*
Y6700D02*
D03*
X6350Y11600D02*
D03*
X7350D02*
D03*
X8350D02*
D03*
X9350D02*
D03*
X10350D02*
D03*
X11350D02*
D03*
X12350D02*
D03*
X13350D02*
D03*
X14350D02*
D03*
X15350D02*
D03*
X16350D02*
D03*
X17350D02*
D03*
X18350D02*
D03*
X19350D02*
D03*
X20350D02*
D03*
X5350D02*
D03*
X4350D02*
D03*
X3350D02*
D03*
X2350D02*
D03*
X6350Y1050D02*
D03*
X7350D02*
D03*
X8350D02*
D03*
X9350D02*
D03*
X10350D02*
D03*
X11350D02*
D03*
X12350D02*
D03*
X13350D02*
D03*
X14350D02*
D03*
X15350D02*
D03*
X16350D02*
D03*
X17350D02*
D03*
X18350D02*
D03*
X19350D02*
D03*
X20350D02*
D03*
X5350D02*
D03*
X4350D02*
D03*
X3350D02*
D03*
X2350D02*
D03*
D55*
X1050Y7700D02*
D03*
D56*
X21350Y11600D02*
D03*
Y1050D02*
D03*
D57*
X21040Y2610D02*
D03*
X6521Y7380D02*
D03*
X6080Y7100D02*
D03*
X11550Y4250D02*
D03*
X8003Y4332D02*
D03*
X17860Y4460D02*
D03*
X18260Y8360D02*
D03*
X15650Y6500D02*
D03*
X7750Y3650D02*
D03*
X5550Y7000D02*
D03*
X4610Y2690D02*
D03*
X4570Y6660D02*
D03*
X17360Y9760D02*
D03*
X17430Y2530D02*
D03*
X11970Y2760D02*
D03*
X10260Y8350D02*
D03*
X4595Y3835D02*
D03*
X5090Y7180D02*
D03*
X1050Y3440D02*
D03*
X19050Y4100D02*
D03*
X19800Y2310D02*
D03*
X11541Y9248D02*
D03*
X5573Y6377D02*
D03*
X10800Y4800D02*
D03*
X12415Y5135D02*
D03*
X9620Y3050D02*
D03*
X12150Y9500D02*
D03*
X11850Y9400D02*
D03*
X7500Y3200D02*
D03*
X7310Y3640D02*
D03*
X20300Y8900D02*
D03*
X6300Y10050D02*
D03*
X5350D02*
D03*
D58*
X9400Y2480D02*
D03*
X19670Y3310D02*
D03*
X21350Y1700D02*
D03*
X16350Y9620D02*
D03*
M02*
