G04*
G04 #@! TF.GenerationSoftware,Altium Limited,Altium Designer,22.0.2 (36)*
G04*
G04 Layer_Color=8388736*
%FSLAX24Y24*%
%MOIN*%
G70*
G04*
G04 #@! TF.SameCoordinates,D96F1F73-0473-4D1D-A2DC-BC1745D11BA0*
G04*
G04*
G04 #@! TF.FilePolarity,Negative*
G04*
G01*
G75*
%ADD33R,0.0680X0.0188*%
%ADD34R,0.0837X0.0444*%
%ADD35R,0.0837X0.2019*%
%ADD36R,0.0350X0.0450*%
%ADD37R,0.0450X0.0350*%
G04:AMPARAMS|DCode=38|XSize=16mil|YSize=75.9mil|CornerRadius=0mil|HoleSize=0mil|Usage=FLASHONLY|Rotation=225.000|XOffset=0mil|YOffset=0mil|HoleType=Round|Shape=Round|*
%AMOVALD38*
21,1,0.0599,0.0160,0.0000,0.0000,315.0*
1,1,0.0160,-0.0212,0.0212*
1,1,0.0160,0.0212,-0.0212*
%
%ADD38OVALD38*%

G04:AMPARAMS|DCode=39|XSize=16mil|YSize=75.9mil|CornerRadius=0mil|HoleSize=0mil|Usage=FLASHONLY|Rotation=315.000|XOffset=0mil|YOffset=0mil|HoleType=Round|Shape=Round|*
%AMOVALD39*
21,1,0.0599,0.0160,0.0000,0.0000,45.0*
1,1,0.0160,-0.0212,-0.0212*
1,1,0.0160,0.0212,0.0212*
%
%ADD39OVALD39*%

%ADD40R,0.0350X0.0350*%
%ADD41P,0.0379X8X202.5*%
%ADD42R,0.0641X0.1034*%
%ADD43R,0.0350X0.0350*%
%ADD44P,0.0379X8X112.5*%
%ADD45R,0.0719X0.1270*%
%ADD46R,0.0719X0.0345*%
%ADD47R,0.0837X0.0641*%
%ADD48R,0.0641X0.0365*%
%ADD49C,0.0719*%
%ADD50R,0.0719X0.0719*%
%ADD51R,0.0719X0.0719*%
D33*
X21302Y4306D02*
D03*
Y4562D02*
D03*
Y3538D02*
D03*
Y4050D02*
D03*
Y3794D02*
D03*
D34*
X22440Y4400D02*
D03*
Y3700D02*
D03*
D35*
X3300Y4256D02*
D03*
Y7996D02*
D03*
D36*
X5100Y3835D02*
D03*
Y4565D02*
D03*
Y5770D02*
D03*
Y6500D02*
D03*
Y7735D02*
D03*
Y8465D02*
D03*
X20950Y6985D02*
D03*
Y7715D02*
D03*
Y9600D02*
D03*
Y8870D02*
D03*
X18600Y3565D02*
D03*
Y2835D02*
D03*
D37*
X4085Y10050D02*
D03*
X4815D02*
D03*
X13285Y8550D02*
D03*
X14015D02*
D03*
X20400Y2950D02*
D03*
X19670D02*
D03*
Y4100D02*
D03*
X20400D02*
D03*
Y5100D02*
D03*
X19670D02*
D03*
X16935Y3150D02*
D03*
X17665D02*
D03*
X16935Y4950D02*
D03*
X17665D02*
D03*
X11685Y4650D02*
D03*
X12415D02*
D03*
X11685Y3150D02*
D03*
X12415D02*
D03*
X11685Y3850D02*
D03*
X12415D02*
D03*
D38*
X10750Y6031D02*
D03*
X10611Y5892D02*
D03*
X10472Y5753D02*
D03*
X10333Y5613D02*
D03*
X10193Y5474D02*
D03*
X10054Y5335D02*
D03*
X9915Y5196D02*
D03*
X9776Y5057D02*
D03*
X9637Y4917D02*
D03*
X9497Y4778D02*
D03*
X9358Y4639D02*
D03*
X9219Y4500D02*
D03*
X6950Y6769D02*
D03*
X7089Y6908D02*
D03*
X7228Y7047D02*
D03*
X7367Y7187D02*
D03*
X7507Y7326D02*
D03*
X7646Y7465D02*
D03*
X7785Y7604D02*
D03*
X7924Y7743D02*
D03*
X8063Y7883D02*
D03*
X8203Y8022D02*
D03*
X8342Y8161D02*
D03*
X8481Y8300D02*
D03*
D39*
Y4500D02*
D03*
X8342Y4639D02*
D03*
X8203Y4778D02*
D03*
X8063Y4917D02*
D03*
X7924Y5057D02*
D03*
X7785Y5196D02*
D03*
X7646Y5335D02*
D03*
X7507Y5474D02*
D03*
X7367Y5613D02*
D03*
X7228Y5753D02*
D03*
X7089Y5892D02*
D03*
X6950Y6031D02*
D03*
X9219Y8300D02*
D03*
X9358Y8161D02*
D03*
X9497Y8022D02*
D03*
X9637Y7883D02*
D03*
X9776Y7743D02*
D03*
X9915Y7604D02*
D03*
X10054Y7465D02*
D03*
X10193Y7326D02*
D03*
X10333Y7187D02*
D03*
X10472Y7047D02*
D03*
X10611Y6908D02*
D03*
X10750Y6769D02*
D03*
D40*
X15656Y8550D02*
D03*
D41*
X15044D02*
D03*
D42*
X22688Y10150D02*
D03*
Y6750D02*
D03*
D43*
X18600Y4744D02*
D03*
D44*
Y5356D02*
D03*
D45*
X13250Y4200D02*
D03*
D46*
X15650Y5106D02*
D03*
Y4200D02*
D03*
Y3294D02*
D03*
D47*
X22444Y2623D02*
D03*
Y5477D02*
D03*
D48*
X21377Y5005D02*
D03*
Y3095D02*
D03*
D49*
X1050Y4700D02*
D03*
Y5700D02*
D03*
Y6700D02*
D03*
X6350Y11600D02*
D03*
X7350D02*
D03*
X8350D02*
D03*
X9350D02*
D03*
X10350D02*
D03*
X11350D02*
D03*
X12350D02*
D03*
X13350D02*
D03*
X14350D02*
D03*
X15350D02*
D03*
X16350D02*
D03*
X17350D02*
D03*
X18350D02*
D03*
X19350D02*
D03*
X20350D02*
D03*
X5350D02*
D03*
X4350D02*
D03*
X3350D02*
D03*
X2350D02*
D03*
X6350Y1050D02*
D03*
X7350D02*
D03*
X8350D02*
D03*
X9350D02*
D03*
X10350D02*
D03*
X11350D02*
D03*
X12350D02*
D03*
X13350D02*
D03*
X14350D02*
D03*
X15350D02*
D03*
X16350D02*
D03*
X17350D02*
D03*
X18350D02*
D03*
X19350D02*
D03*
X20350D02*
D03*
X5350D02*
D03*
X4350D02*
D03*
X3350D02*
D03*
X2350D02*
D03*
D50*
X1050Y7700D02*
D03*
D51*
X21350Y11600D02*
D03*
Y1050D02*
D03*
M02*
