G04*
G04 #@! TF.GenerationSoftware,Altium Limited,Altium Designer,22.0.2 (36)*
G04*
G04 Layer_Color=65535*
%FSLAX24Y24*%
%MOIN*%
G70*
G04*
G04 #@! TF.SameCoordinates,D96F1F73-0473-4D1D-A2DC-BC1745D11BA0*
G04*
G04*
G04 #@! TF.FilePolarity,Positive*
G04*
G01*
G75*
%ADD10C,0.0200*%
%ADD11C,0.0197*%
%ADD12C,0.0060*%
%ADD13C,0.0039*%
%ADD14C,0.0100*%
%ADD15C,0.0080*%
%ADD16C,0.0098*%
%ADD17C,0.0079*%
%ADD18C,0.0040*%
D10*
X11211Y6612D02*
G03*
X11211Y6612I-98J0D01*
G01*
D11*
X9938Y6400D02*
G03*
X9938Y6400I-98J0D01*
G01*
X14879Y3250D02*
G03*
X14879Y3250I-79J0D01*
G01*
X15979Y2900D02*
G03*
X15979Y2900I-79J0D01*
G01*
D12*
X21706Y3400D02*
Y4650D01*
X21244Y2500D02*
X21984D01*
X21244D02*
Y2800D01*
Y5350D02*
Y5600D01*
X21984D01*
X23394Y5400D02*
X23496Y5300D01*
X23394Y5400D02*
Y5500D01*
X23494Y5600D01*
X23394Y5700D02*
X23494Y5600D01*
X23294D02*
X23394Y5700D01*
X23294Y2500D02*
X23394Y2400D01*
Y2700D02*
X23496Y2800D01*
X23394Y2600D02*
Y2700D01*
Y2600D02*
X23494Y2500D01*
X23394Y2400D02*
X23494Y2500D01*
X22944D02*
X23294D01*
Y5600D01*
X22944D02*
X23294D01*
X23496Y2800D02*
Y5300D01*
X23394Y2700D02*
Y5400D01*
X2900Y6026D02*
X3700D01*
Y6226D01*
X2900D02*
X3700D01*
X2900Y6026D02*
Y6226D01*
Y5876D02*
X3700D01*
X2900Y6376D02*
X3700D01*
X3300D02*
Y6876D01*
Y5376D02*
Y5876D01*
X5000Y4150D02*
X5200D01*
X5000Y4250D02*
X5200D01*
X5100D02*
Y4300D01*
Y4100D02*
Y4150D01*
X5000Y8050D02*
X5200D01*
X5000Y8150D02*
X5200D01*
X5100D02*
Y8200D01*
Y8000D02*
Y8050D01*
X20850Y7300D02*
X21050D01*
X20850Y7400D02*
X21050D01*
X20950D02*
Y7450D01*
Y7250D02*
Y7300D01*
X17250Y3050D02*
Y3250D01*
X17350Y3050D02*
Y3250D01*
Y3150D02*
X17400D01*
X17200D02*
X17250D01*
Y4850D02*
Y5050D01*
X17350Y4850D02*
Y5050D01*
Y4950D02*
X17400D01*
X17200D02*
X17250D01*
X12000Y3050D02*
Y3250D01*
X12100Y3050D02*
Y3250D01*
Y3150D02*
X12150D01*
X11950D02*
X12000D01*
Y3750D02*
Y3950D01*
X12100Y3750D02*
Y3950D01*
Y3850D02*
X12150D01*
X11950D02*
X12000D01*
D13*
X20752Y3688D02*
X20902Y3538D01*
X20752Y3388D02*
Y3688D01*
Y3388D02*
X20902Y3538D01*
D14*
X2355Y3882D02*
X2750D01*
X2355Y8370D02*
X2750D01*
X3850Y3882D02*
X4245D01*
X3850Y8370D02*
X4245D01*
Y3882D02*
Y8370D01*
X2355Y3882D02*
Y8370D01*
X7294Y6400D02*
X8850Y7956D01*
X7294Y6400D02*
X8850Y4844D01*
X10406Y6400D01*
X8850Y7956D02*
X10406Y6400D01*
X22188Y8450D02*
X22448D01*
X22628D02*
X22888D01*
X23088Y8150D02*
Y8740D01*
X22188Y7750D02*
X22478D01*
X22188D02*
Y9150D01*
X22478D01*
X23148Y9666D02*
X23436D01*
X23148Y7186D02*
X23436D01*
X21940Y9666D02*
X22268D01*
X21940Y7186D02*
X22268D01*
X23436D02*
Y9666D01*
X21940Y7186D02*
Y9666D01*
D15*
X5340Y3540D02*
Y4020D01*
X4860Y3540D02*
Y4020D01*
Y3540D02*
X5340D01*
X4860Y4860D02*
X5340D01*
Y4380D02*
Y4860D01*
X4860Y4380D02*
Y4860D01*
X5340Y5475D02*
Y5955D01*
X4860Y5475D02*
Y5955D01*
Y5475D02*
X5340D01*
X4860Y6795D02*
X5340D01*
Y5955D02*
Y6795D01*
X4860Y5955D02*
Y6795D01*
X5340Y7440D02*
Y7920D01*
X4860Y7440D02*
Y7920D01*
Y7440D02*
X5340D01*
X4860Y8760D02*
X5340D01*
Y8280D02*
Y8760D01*
X4860Y8280D02*
Y8760D01*
X3790Y9810D02*
X4270D01*
X3790Y10290D02*
X4270D01*
X3790Y9810D02*
Y10290D01*
X5110Y9810D02*
Y10290D01*
X4270Y9810D02*
X5110D01*
X4270Y10290D02*
X5110D01*
X14809Y8314D02*
Y8786D01*
X15500Y8314D02*
X15891D01*
X15500Y8786D02*
X15891D01*
Y8314D02*
Y8786D01*
X14700Y8314D02*
Y8786D01*
Y8314D02*
X15200D01*
X14700Y8786D02*
X15200D01*
X12990Y8310D02*
X13830D01*
X12990Y8790D02*
X13830D01*
X12990Y8310D02*
Y8790D01*
X14310Y8310D02*
Y8790D01*
X13830Y8310D02*
X14310D01*
X13830Y8790D02*
X14310D01*
X21190Y6690D02*
Y7170D01*
X20710Y6690D02*
Y7170D01*
Y6690D02*
X21190D01*
X20710Y8010D02*
X21190D01*
Y7530D02*
Y8010D01*
X20710Y7530D02*
Y8010D01*
Y9055D02*
Y9895D01*
X21190Y9055D02*
Y9895D01*
X20710D02*
X21190D01*
X20710Y8575D02*
X21190D01*
X20710D02*
Y9055D01*
X21190Y8575D02*
Y9055D01*
X19855Y3190D02*
X20695D01*
X19855Y2710D02*
X20695D01*
Y3190D01*
X19375Y2710D02*
Y3190D01*
X19855D01*
X19375Y2710D02*
X19855D01*
X19375Y3860D02*
X20215D01*
X19375Y4340D02*
X20215D01*
X19375Y3860D02*
Y4340D01*
X20695Y3860D02*
Y4340D01*
X20215Y3860D02*
X20695D01*
X20215Y4340D02*
X20695D01*
X20215Y5340D02*
X20695D01*
X20215Y4860D02*
X20695D01*
Y5340D01*
X19375Y4860D02*
Y5340D01*
X20215D01*
X19375Y4860D02*
X20215D01*
X18360Y3380D02*
Y3860D01*
X18840Y3380D02*
Y3860D01*
X18360D02*
X18840D01*
X18360Y2540D02*
X18840D01*
X18360D02*
Y3380D01*
X18840Y2540D02*
Y3380D01*
X18364Y5591D02*
X18836D01*
X18364Y4509D02*
Y4900D01*
X18836Y4509D02*
Y4900D01*
X18364Y4509D02*
X18836D01*
X18364Y5700D02*
X18836D01*
X18364Y5200D02*
Y5700D01*
X18836Y5200D02*
Y5700D01*
X16640Y2910D02*
X17120D01*
X16640Y3390D02*
X17120D01*
X16640Y2910D02*
Y3390D01*
X17960Y2910D02*
Y3390D01*
X17480Y2910D02*
X17960D01*
X17480Y3390D02*
X17960D01*
X16640Y4710D02*
X17120D01*
X16640Y5190D02*
X17120D01*
X16640Y4710D02*
Y5190D01*
X17960Y4710D02*
Y5190D01*
X17480Y4710D02*
X17960D01*
X17480Y5190D02*
X17960D01*
X11390Y4410D02*
X11870D01*
X11390Y4890D02*
X11870D01*
X11390Y4410D02*
Y4890D01*
X12710Y4410D02*
Y4890D01*
X11870Y4410D02*
X12710D01*
X11870Y4890D02*
X12710D01*
X11390Y2910D02*
X11870D01*
X11390Y3390D02*
X11870D01*
X11390Y2910D02*
Y3390D01*
X12710Y2910D02*
Y3390D01*
X12230Y2910D02*
X12710D01*
X12230Y3390D02*
X12710D01*
X11390Y3610D02*
X11870D01*
X11390Y4090D02*
X11870D01*
X11390Y3610D02*
Y4090D01*
X12710Y3610D02*
Y4090D01*
X12230Y3610D02*
X12710D01*
X12230Y4090D02*
X12710D01*
D16*
X13761Y2920D02*
X15139D01*
Y5480D01*
X13761D02*
X15139D01*
X13761Y2920D02*
Y5480D01*
D17*
X-2003Y7670D02*
X-1837Y7837D01*
X50D01*
X-1833Y7504D02*
X50D01*
X-1837D02*
X-1833Y7500D01*
X-2003Y7670D02*
X-1837Y7504D01*
X-2003Y6670D02*
X-1837Y6504D01*
X-1833D02*
X50D01*
X-1837Y6837D02*
X50D01*
X-2003Y6670D02*
X-1837Y6837D01*
X-2003Y5670D02*
X-1837Y5837D01*
X50D01*
X-1833Y5504D02*
X50D01*
X-2003Y5670D02*
X-1837Y5504D01*
X-2003Y4670D02*
X-1837Y4837D01*
X50D01*
X-1833Y4504D02*
X50D01*
X-2003Y4670D02*
X-1837Y4504D01*
X600Y4200D02*
Y7500D01*
Y8200D01*
X300D02*
X550Y7950D01*
X50Y8200D02*
X600D01*
X50Y4200D02*
Y8200D01*
Y4200D02*
X600D01*
X20858Y11108D02*
Y12092D01*
X1850Y11100D02*
Y12100D01*
Y11100D02*
X21100D01*
X21850D01*
Y12100D01*
X1850D02*
X21850D01*
X20858Y558D02*
Y1542D01*
X1850Y550D02*
Y1550D01*
Y550D02*
X21100D01*
X21850D01*
Y1550D01*
X1850D02*
X21850D01*
D18*
X23015Y1567D02*
X23223D01*
X23265Y1608D01*
Y1692D01*
X23223Y1733D01*
X23015D01*
X23057Y1983D02*
X23015Y1942D01*
Y1858D01*
X23057Y1817D01*
X23098D01*
X23140Y1858D01*
Y1942D01*
X23182Y1983D01*
X23223D01*
X23265Y1942D01*
Y1858D01*
X23223Y1817D01*
X23015Y2067D02*
X23265D01*
Y2192D01*
X23223Y2233D01*
X23182D01*
X23140Y2192D01*
Y2067D01*
Y2192D01*
X23098Y2233D01*
X23057D01*
X23015Y2192D01*
Y2067D01*
X2009Y139D02*
Y389D01*
X2134D01*
X2176Y348D01*
Y264D01*
X2134Y223D01*
X2009D01*
X2259Y389D02*
Y139D01*
X2384D01*
X2426Y181D01*
Y223D01*
X2384Y264D01*
X2259D01*
X2384D01*
X2426Y306D01*
Y348D01*
X2384Y389D01*
X2259D01*
X2509Y139D02*
X2592D01*
X2551D01*
Y389D01*
X2509Y348D01*
X2884Y139D02*
X2717D01*
X2884Y306D01*
Y348D01*
X2842Y389D01*
X2759D01*
X2717Y348D01*
X3019Y139D02*
Y389D01*
X3144D01*
X3186Y348D01*
Y264D01*
X3144Y223D01*
X3019D01*
X3269Y389D02*
Y139D01*
X3394D01*
X3436Y181D01*
Y223D01*
X3394Y264D01*
X3269D01*
X3394D01*
X3436Y306D01*
Y348D01*
X3394Y389D01*
X3269D01*
X3519Y139D02*
X3602D01*
X3561D01*
Y389D01*
X3519Y348D01*
X3727D02*
X3769Y389D01*
X3852D01*
X3894Y348D01*
Y306D01*
X3852Y264D01*
X3811D01*
X3852D01*
X3894Y223D01*
Y181D01*
X3852Y139D01*
X3769D01*
X3727Y181D01*
X3999Y139D02*
Y389D01*
X4124D01*
X4166Y348D01*
Y264D01*
X4124Y223D01*
X3999D01*
X4249Y389D02*
Y139D01*
X4374D01*
X4416Y181D01*
Y223D01*
X4374Y264D01*
X4249D01*
X4374D01*
X4416Y306D01*
Y348D01*
X4374Y389D01*
X4249D01*
X4499Y139D02*
X4582D01*
X4541D01*
Y389D01*
X4499Y348D01*
X4832Y139D02*
Y389D01*
X4707Y264D01*
X4874D01*
X5019Y139D02*
Y389D01*
X5144D01*
X5186Y348D01*
Y264D01*
X5144Y223D01*
X5019D01*
X5269Y389D02*
Y139D01*
X5394D01*
X5436Y181D01*
Y223D01*
X5394Y264D01*
X5269D01*
X5394D01*
X5436Y306D01*
Y348D01*
X5394Y389D01*
X5269D01*
X5519Y139D02*
X5602D01*
X5561D01*
Y389D01*
X5519Y348D01*
X5894Y389D02*
X5727D01*
Y264D01*
X5811Y306D01*
X5852D01*
X5894Y264D01*
Y181D01*
X5852Y139D01*
X5769D01*
X5727Y181D01*
X6059Y139D02*
Y389D01*
X6184D01*
X6226Y348D01*
Y264D01*
X6184Y223D01*
X6059D01*
X6309Y139D02*
Y306D01*
X6392Y389D01*
X6476Y306D01*
Y139D01*
Y264D01*
X6309D01*
X6559Y348D02*
X6601Y389D01*
X6684D01*
X6726Y348D01*
Y306D01*
X6684Y264D01*
X6726Y223D01*
Y181D01*
X6684Y139D01*
X6601D01*
X6559Y181D01*
Y223D01*
X6601Y264D01*
X6559Y306D01*
Y348D01*
X6601Y264D02*
X6684D01*
X7019Y139D02*
Y389D01*
X7144D01*
X7186Y348D01*
Y264D01*
X7144Y223D01*
X7019D01*
X7269Y139D02*
Y306D01*
X7352Y389D01*
X7436Y306D01*
Y139D01*
Y264D01*
X7269D01*
X7519Y181D02*
X7561Y139D01*
X7644D01*
X7686Y181D01*
Y348D01*
X7644Y389D01*
X7561D01*
X7519Y348D01*
Y306D01*
X7561Y264D01*
X7686D01*
X7989Y139D02*
Y389D01*
X8114D01*
X8156Y348D01*
Y264D01*
X8114Y223D01*
X7989D01*
X8239Y139D02*
Y306D01*
X8322Y389D01*
X8406Y306D01*
Y139D01*
Y264D01*
X8239D01*
X8489Y139D02*
X8572D01*
X8531D01*
Y389D01*
X8489Y348D01*
X8697D02*
X8739Y389D01*
X8822D01*
X8864Y348D01*
Y181D01*
X8822Y139D01*
X8739D01*
X8697Y181D01*
Y348D01*
X9196D02*
X9154Y389D01*
X9071D01*
X9029Y348D01*
Y181D01*
X9071Y139D01*
X9154D01*
X9196Y181D01*
Y264D01*
X9113D01*
X9279Y139D02*
Y389D01*
X9446Y139D01*
Y389D01*
X9529D02*
Y139D01*
X9654D01*
X9696Y181D01*
Y348D01*
X9654Y389D01*
X9529D01*
X9999D02*
Y223D01*
X10083Y139D01*
X10166Y223D01*
Y389D01*
X10416Y348D02*
X10374Y389D01*
X10291D01*
X10249Y348D01*
Y181D01*
X10291Y139D01*
X10374D01*
X10416Y181D01*
X10666Y348D02*
X10624Y389D01*
X10541D01*
X10499Y348D01*
Y181D01*
X10541Y139D01*
X10624D01*
X10666Y181D01*
X11009Y139D02*
Y389D01*
X11134D01*
X11176Y348D01*
Y264D01*
X11134Y223D01*
X11009D01*
X11259Y139D02*
Y306D01*
X11343Y389D01*
X11426Y306D01*
Y139D01*
Y264D01*
X11259D01*
X11509Y139D02*
X11592D01*
X11551D01*
Y389D01*
X11509Y348D01*
X11884Y389D02*
X11717D01*
Y264D01*
X11801Y306D01*
X11842D01*
X11884Y264D01*
Y181D01*
X11842Y139D01*
X11759D01*
X11717Y181D01*
X12039Y139D02*
Y389D01*
X12164D01*
X12206Y348D01*
Y264D01*
X12164Y223D01*
X12039D01*
X12289Y389D02*
Y139D01*
X12414D01*
X12456Y181D01*
Y223D01*
X12414Y264D01*
X12289D01*
X12414D01*
X12456Y306D01*
Y348D01*
X12414Y389D01*
X12289D01*
X12539Y348D02*
X12581Y389D01*
X12664D01*
X12706Y348D01*
Y306D01*
X12664Y264D01*
X12622D01*
X12664D01*
X12706Y223D01*
Y181D01*
X12664Y139D01*
X12581D01*
X12539Y181D01*
X13049Y139D02*
Y389D01*
X13174D01*
X13216Y348D01*
Y264D01*
X13174Y223D01*
X13049D01*
X13299Y389D02*
Y139D01*
X13424D01*
X13466Y181D01*
Y223D01*
X13424Y264D01*
X13299D01*
X13424D01*
X13466Y306D01*
Y348D01*
X13424Y389D01*
X13299D01*
X13674Y139D02*
Y389D01*
X13549Y264D01*
X13716D01*
X14069Y139D02*
Y389D01*
X14194D01*
X14236Y348D01*
Y264D01*
X14194Y223D01*
X14069D01*
X14319Y389D02*
Y139D01*
X14444D01*
X14486Y181D01*
Y223D01*
X14444Y264D01*
X14319D01*
X14444D01*
X14486Y306D01*
Y348D01*
X14444Y389D01*
X14319D01*
X14736D02*
X14569D01*
Y264D01*
X14652Y306D01*
X14694D01*
X14736Y264D01*
Y181D01*
X14694Y139D01*
X14611D01*
X14569Y181D01*
X14999Y139D02*
Y389D01*
X15124D01*
X15166Y348D01*
Y264D01*
X15124Y223D01*
X14999D01*
X15249Y389D02*
Y139D01*
X15374D01*
X15416Y181D01*
Y223D01*
X15374Y264D01*
X15249D01*
X15374D01*
X15416Y306D01*
Y348D01*
X15374Y389D01*
X15249D01*
X15666D02*
X15582Y348D01*
X15499Y264D01*
Y181D01*
X15541Y139D01*
X15624D01*
X15666Y181D01*
Y223D01*
X15624Y264D01*
X15499D01*
X15969Y139D02*
Y389D01*
X16094D01*
X16136Y348D01*
Y264D01*
X16094Y223D01*
X15969D01*
X16219Y389D02*
Y139D01*
X16344D01*
X16386Y181D01*
Y223D01*
X16344Y264D01*
X16219D01*
X16344D01*
X16386Y306D01*
Y348D01*
X16344Y389D01*
X16219D01*
X16469D02*
X16636D01*
Y348D01*
X16469Y181D01*
Y139D01*
X16989D02*
Y389D01*
X17114D01*
X17156Y348D01*
Y264D01*
X17114Y223D01*
X16989D01*
X17239Y389D02*
Y139D01*
X17364D01*
X17406Y181D01*
Y223D01*
X17364Y264D01*
X17239D01*
X17364D01*
X17406Y306D01*
Y348D01*
X17364Y389D01*
X17239D01*
X17489Y348D02*
X17531Y389D01*
X17614D01*
X17656Y348D01*
Y306D01*
X17614Y264D01*
X17656Y223D01*
Y181D01*
X17614Y139D01*
X17531D01*
X17489Y181D01*
Y223D01*
X17531Y264D01*
X17489Y306D01*
Y348D01*
X17531Y264D02*
X17614D01*
X17909Y139D02*
Y389D01*
X18034D01*
X18076Y348D01*
Y264D01*
X18034Y223D01*
X17909D01*
X18159Y389D02*
Y139D01*
X18284D01*
X18326Y181D01*
Y223D01*
X18284Y264D01*
X18159D01*
X18284D01*
X18326Y306D01*
Y348D01*
X18284Y389D01*
X18159D01*
X18409Y181D02*
X18451Y139D01*
X18534D01*
X18576Y181D01*
Y348D01*
X18534Y389D01*
X18451D01*
X18409Y348D01*
Y306D01*
X18451Y264D01*
X18576D01*
X18949D02*
X19116D01*
X19033Y348D02*
Y181D01*
X19366Y389D02*
X19199D01*
Y264D01*
X19282Y306D01*
X19324D01*
X19366Y264D01*
Y181D01*
X19324Y139D01*
X19241D01*
X19199Y181D01*
X19449Y389D02*
Y223D01*
X19532Y139D01*
X19616Y223D01*
Y389D01*
X20206Y348D02*
X20164Y389D01*
X20081D01*
X20039Y348D01*
Y181D01*
X20081Y139D01*
X20164D01*
X20206Y181D01*
Y264D01*
X20123D01*
X20289Y139D02*
Y389D01*
X20456Y139D01*
Y389D01*
X20539D02*
Y139D01*
X20664D01*
X20706Y181D01*
Y348D01*
X20664Y389D01*
X20539D01*
X21029D02*
Y223D01*
X21113Y139D01*
X21196Y223D01*
Y389D01*
X21446Y348D02*
X21404Y389D01*
X21321D01*
X21279Y348D01*
Y181D01*
X21321Y139D01*
X21404D01*
X21446Y181D01*
X21696Y348D02*
X21654Y389D01*
X21571D01*
X21529Y348D01*
Y181D01*
X21571Y139D01*
X21654D01*
X21696Y181D01*
X1650Y6368D02*
X1900D01*
Y6493D01*
X1858Y6534D01*
X1692D01*
X1650Y6493D01*
Y6368D01*
Y6618D02*
Y6701D01*
Y6659D01*
X1900D01*
Y6618D01*
Y6701D01*
X1650Y6951D02*
Y6868D01*
X1692Y6826D01*
X1858D01*
X1900Y6868D01*
Y6951D01*
X1858Y6993D01*
X1692D01*
X1650Y6951D01*
X1858Y5876D02*
X1900Y5917D01*
Y6001D01*
X1858Y6042D01*
X1692D01*
X1650Y6001D01*
Y5917D01*
X1692Y5876D01*
X1900Y5792D02*
X1650D01*
Y5626D01*
X1900Y5542D02*
X1650D01*
X1733D01*
X1900Y5376D01*
X1775Y5501D01*
X1650Y5376D01*
X1858Y4896D02*
X1900Y4937D01*
Y5021D01*
X1858Y5062D01*
X1692D01*
X1650Y5021D01*
Y4937D01*
X1692Y4896D01*
X1775D01*
Y4979D01*
X1650Y4812D02*
X1900D01*
X1650Y4646D01*
X1900D01*
Y4562D02*
X1650D01*
Y4437D01*
X1692Y4396D01*
X1858D01*
X1900Y4437D01*
Y4562D01*
X1850Y10180D02*
Y10013D01*
X1933Y9930D01*
X2017Y10013D01*
Y10180D01*
X2267Y10138D02*
X2225Y10180D01*
X2142D01*
X2100Y10138D01*
Y9972D01*
X2142Y9930D01*
X2225D01*
X2267Y9972D01*
X2516Y10138D02*
X2475Y10180D01*
X2391D01*
X2350Y10138D01*
Y9972D01*
X2391Y9930D01*
X2475D01*
X2516Y9972D01*
X1900Y8120D02*
X1733D01*
X1650Y8037D01*
X1733Y7953D01*
X1900D01*
X1858Y7703D02*
X1900Y7745D01*
Y7828D01*
X1858Y7870D01*
X1692D01*
X1650Y7828D01*
Y7745D01*
X1692Y7703D01*
X1858Y7454D02*
X1900Y7495D01*
Y7579D01*
X1858Y7620D01*
X1692D01*
X1650Y7579D01*
Y7495D01*
X1692Y7454D01*
X21050Y12480D02*
Y12313D01*
X21133Y12230D01*
X21217Y12313D01*
Y12480D01*
X21467Y12438D02*
X21425Y12480D01*
X21342D01*
X21300Y12438D01*
Y12272D01*
X21342Y12230D01*
X21425D01*
X21467Y12272D01*
X21716Y12438D02*
X21675Y12480D01*
X21591D01*
X21550Y12438D01*
Y12272D01*
X21591Y12230D01*
X21675D01*
X21716Y12272D01*
X20060Y12355D02*
X20227D01*
X20143Y12438D02*
Y12272D01*
X20477Y12480D02*
X20310D01*
Y12355D01*
X20393Y12397D01*
X20435D01*
X20477Y12355D01*
Y12272D01*
X20435Y12230D01*
X20352D01*
X20310Y12272D01*
X20560Y12480D02*
Y12313D01*
X20643Y12230D01*
X20726Y12313D01*
Y12480D01*
X18970Y12230D02*
Y12480D01*
X19095D01*
X19137Y12438D01*
Y12355D01*
X19095Y12313D01*
X18970D01*
X19387Y12438D02*
X19345Y12480D01*
X19262D01*
X19220Y12438D01*
Y12272D01*
X19262Y12230D01*
X19345D01*
X19387Y12272D01*
X19470Y12230D02*
X19553D01*
X19511D01*
Y12480D01*
X19470Y12438D01*
X19803Y12230D02*
Y12480D01*
X19678Y12355D01*
X19845D01*
X17930Y12230D02*
Y12480D01*
X18055D01*
X18097Y12438D01*
Y12355D01*
X18055Y12313D01*
X17930D01*
X18347Y12438D02*
X18305Y12480D01*
X18222D01*
X18180Y12438D01*
Y12272D01*
X18222Y12230D01*
X18305D01*
X18347Y12272D01*
X18430Y12230D02*
X18513D01*
X18471D01*
Y12480D01*
X18430Y12438D01*
X18805Y12480D02*
X18638D01*
Y12355D01*
X18721Y12397D01*
X18763D01*
X18805Y12355D01*
Y12272D01*
X18763Y12230D01*
X18680D01*
X18638Y12272D01*
X17177Y12438D02*
X17135Y12480D01*
X17052D01*
X17010Y12438D01*
Y12272D01*
X17052Y12230D01*
X17135D01*
X17177Y12272D01*
Y12355D01*
X17093D01*
X17260Y12230D02*
Y12480D01*
X17427Y12230D01*
Y12480D01*
X17510D02*
Y12230D01*
X17635D01*
X17676Y12272D01*
Y12438D01*
X17635Y12480D01*
X17510D01*
X15990D02*
Y12313D01*
X16073Y12230D01*
X16157Y12313D01*
Y12480D01*
X16407Y12438D02*
X16365Y12480D01*
X16282D01*
X16240Y12438D01*
Y12272D01*
X16282Y12230D01*
X16365D01*
X16407Y12272D01*
X16656Y12438D02*
X16615Y12480D01*
X16531D01*
X16490Y12438D01*
Y12272D01*
X16531Y12230D01*
X16615D01*
X16656Y12272D01*
X15020Y12230D02*
Y12480D01*
X15145D01*
X15187Y12438D01*
Y12355D01*
X15145Y12313D01*
X15020D01*
X15270Y12230D02*
Y12397D01*
X15353Y12480D01*
X15437Y12397D01*
Y12230D01*
Y12355D01*
X15270D01*
X15520Y12438D02*
X15561Y12480D01*
X15645D01*
X15686Y12438D01*
Y12272D01*
X15645Y12230D01*
X15561D01*
X15520Y12272D01*
Y12438D01*
X14090Y12230D02*
Y12480D01*
X14215D01*
X14257Y12438D01*
Y12355D01*
X14215Y12313D01*
X14090D01*
X14340Y12230D02*
Y12397D01*
X14423Y12480D01*
X14507Y12397D01*
Y12230D01*
Y12355D01*
X14340D01*
X14590Y12230D02*
X14673D01*
X14631D01*
Y12480D01*
X14590Y12438D01*
X13070Y12230D02*
Y12480D01*
X13195D01*
X13237Y12438D01*
Y12355D01*
X13195Y12313D01*
X13070D01*
X13320Y12230D02*
Y12397D01*
X13403Y12480D01*
X13487Y12397D01*
Y12230D01*
Y12355D01*
X13320D01*
X13736Y12230D02*
X13570D01*
X13736Y12397D01*
Y12438D01*
X13695Y12480D01*
X13611D01*
X13570Y12438D01*
X12060Y12230D02*
Y12480D01*
X12185D01*
X12227Y12438D01*
Y12355D01*
X12185Y12313D01*
X12060D01*
X12310Y12230D02*
Y12397D01*
X12393Y12480D01*
X12477Y12397D01*
Y12230D01*
Y12355D01*
X12310D01*
X12560Y12438D02*
X12601Y12480D01*
X12685D01*
X12726Y12438D01*
Y12397D01*
X12685Y12355D01*
X12643D01*
X12685D01*
X12726Y12313D01*
Y12272D01*
X12685Y12230D01*
X12601D01*
X12560Y12272D01*
X11030Y12230D02*
Y12480D01*
X11155D01*
X11197Y12438D01*
Y12355D01*
X11155Y12313D01*
X11030D01*
X11280Y12230D02*
Y12397D01*
X11363Y12480D01*
X11447Y12397D01*
Y12230D01*
Y12355D01*
X11280D01*
X11655Y12230D02*
Y12480D01*
X11530Y12355D01*
X11696D01*
X10020Y12230D02*
Y12480D01*
X10145D01*
X10187Y12438D01*
Y12355D01*
X10145Y12313D01*
X10020D01*
X10270Y12230D02*
Y12397D01*
X10353Y12480D01*
X10437Y12397D01*
Y12230D01*
Y12355D01*
X10270D01*
X10686Y12480D02*
X10520D01*
Y12355D01*
X10603Y12397D01*
X10645D01*
X10686Y12355D01*
Y12272D01*
X10645Y12230D01*
X10561D01*
X10520Y12272D01*
X9050Y12230D02*
Y12480D01*
X9175D01*
X9217Y12438D01*
Y12355D01*
X9175Y12313D01*
X9050D01*
X9300Y12230D02*
Y12397D01*
X9383Y12480D01*
X9467Y12397D01*
Y12230D01*
Y12355D01*
X9300D01*
X9716Y12480D02*
X9633Y12438D01*
X9550Y12355D01*
Y12272D01*
X9591Y12230D01*
X9675D01*
X9716Y12272D01*
Y12313D01*
X9675Y12355D01*
X9550D01*
X8010Y12230D02*
Y12480D01*
X8135D01*
X8177Y12438D01*
Y12355D01*
X8135Y12313D01*
X8010D01*
X8260Y12230D02*
Y12397D01*
X8343Y12480D01*
X8427Y12397D01*
Y12230D01*
Y12355D01*
X8260D01*
X8510Y12480D02*
X8676D01*
Y12438D01*
X8510Y12272D01*
Y12230D01*
X7040D02*
Y12480D01*
X7165D01*
X7207Y12438D01*
Y12355D01*
X7165Y12313D01*
X7040D01*
X7290Y12480D02*
Y12230D01*
X7415D01*
X7457Y12272D01*
Y12313D01*
X7415Y12355D01*
X7290D01*
X7415D01*
X7457Y12397D01*
Y12438D01*
X7415Y12480D01*
X7290D01*
X7540Y12438D02*
X7581Y12480D01*
X7665D01*
X7706Y12438D01*
Y12272D01*
X7665Y12230D01*
X7581D01*
X7540Y12272D01*
Y12438D01*
X6080Y12230D02*
Y12480D01*
X6205D01*
X6247Y12438D01*
Y12355D01*
X6205Y12313D01*
X6080D01*
X6330Y12480D02*
Y12230D01*
X6455D01*
X6497Y12272D01*
Y12313D01*
X6455Y12355D01*
X6330D01*
X6455D01*
X6497Y12397D01*
Y12438D01*
X6455Y12480D01*
X6330D01*
X6580Y12230D02*
X6663D01*
X6621D01*
Y12480D01*
X6580Y12438D01*
X5040Y12230D02*
Y12480D01*
X5165D01*
X5207Y12438D01*
Y12355D01*
X5165Y12313D01*
X5040D01*
X5290Y12480D02*
Y12230D01*
X5415D01*
X5457Y12272D01*
Y12313D01*
X5415Y12355D01*
X5290D01*
X5415D01*
X5457Y12397D01*
Y12438D01*
X5415Y12480D01*
X5290D01*
X5540Y12230D02*
X5623D01*
X5581D01*
Y12480D01*
X5540Y12438D01*
X5748D02*
X5790Y12480D01*
X5873D01*
X5915Y12438D01*
Y12272D01*
X5873Y12230D01*
X5790D01*
X5748Y12272D01*
Y12438D01*
X4020Y12230D02*
Y12480D01*
X4145D01*
X4187Y12438D01*
Y12355D01*
X4145Y12313D01*
X4020D01*
X4270Y12480D02*
Y12230D01*
X4395D01*
X4437Y12272D01*
Y12313D01*
X4395Y12355D01*
X4270D01*
X4395D01*
X4437Y12397D01*
Y12438D01*
X4395Y12480D01*
X4270D01*
X4520Y12230D02*
X4603D01*
X4561D01*
Y12480D01*
X4520Y12438D01*
X4728Y12230D02*
X4811D01*
X4770D01*
Y12480D01*
X4728Y12438D01*
X3207D02*
X3165Y12480D01*
X3082D01*
X3040Y12438D01*
Y12272D01*
X3082Y12230D01*
X3165D01*
X3207Y12272D01*
Y12355D01*
X3123D01*
X3290Y12230D02*
Y12480D01*
X3457Y12230D01*
Y12480D01*
X3540D02*
Y12230D01*
X3665D01*
X3706Y12272D01*
Y12438D01*
X3665Y12480D01*
X3540D01*
X2030D02*
Y12313D01*
X2113Y12230D01*
X2197Y12313D01*
Y12480D01*
X2447Y12438D02*
X2405Y12480D01*
X2322D01*
X2280Y12438D01*
Y12272D01*
X2322Y12230D01*
X2405D01*
X2447Y12272D01*
X2696Y12438D02*
X2655Y12480D01*
X2571D01*
X2530Y12438D01*
Y12272D01*
X2571Y12230D01*
X2655D01*
X2696Y12272D01*
X19632Y5435D02*
Y5685D01*
X19757D01*
X19798Y5643D01*
Y5560D01*
X19757Y5518D01*
X19632D01*
X19715D02*
X19798Y5435D01*
X19882Y5685D02*
X20048D01*
Y5643D01*
X19882Y5477D01*
Y5435D01*
X425Y8433D02*
X175D01*
Y8558D01*
X217Y8600D01*
X300D01*
X342Y8558D01*
Y8433D01*
X425Y8683D02*
Y8767D01*
Y8725D01*
X175D01*
X217Y8683D01*
X19592Y4425D02*
Y4675D01*
X19717D01*
X19758Y4633D01*
Y4550D01*
X19717Y4508D01*
X19592D01*
X19675D02*
X19758Y4425D01*
X20008Y4675D02*
X19925Y4633D01*
X19842Y4550D01*
Y4467D01*
X19883Y4425D01*
X19967D01*
X20008Y4467D01*
Y4508D01*
X19967Y4550D01*
X19842D01*
X19692Y3325D02*
Y3575D01*
X19817D01*
X19858Y3533D01*
Y3450D01*
X19817Y3408D01*
X19692D01*
X19775D02*
X19858Y3325D01*
X19942Y3533D02*
X19983Y3575D01*
X20067D01*
X20108Y3533D01*
Y3492D01*
X20067Y3450D01*
X20108Y3408D01*
Y3367D01*
X20067Y3325D01*
X19983D01*
X19942Y3367D01*
Y3408D01*
X19983Y3450D01*
X19942Y3492D01*
Y3533D01*
X19983Y3450D02*
X20067D01*
X18925Y1992D02*
X18675D01*
Y2117D01*
X18717Y2158D01*
X18800D01*
X18842Y2117D01*
Y1992D01*
Y2075D02*
X18925Y2158D01*
X18883Y2242D02*
X18925Y2283D01*
Y2367D01*
X18883Y2408D01*
X18717D01*
X18675Y2367D01*
Y2283D01*
X18717Y2242D01*
X18758D01*
X18800Y2283D01*
Y2408D01*
X18475Y5792D02*
X18725D01*
Y5917D01*
X18683Y5958D01*
X18517D01*
X18475Y5917D01*
Y5792D01*
X18725Y6208D02*
Y6042D01*
X18558Y6208D01*
X18517D01*
X18475Y6167D01*
Y6083D01*
X18517Y6042D01*
X17117Y3658D02*
X17075Y3617D01*
Y3533D01*
X17117Y3492D01*
X17283D01*
X17325Y3533D01*
Y3617D01*
X17283Y3658D01*
X17325Y3867D02*
X17075D01*
X17200Y3742D01*
Y3908D01*
X17117Y5458D02*
X17075Y5417D01*
Y5333D01*
X17117Y5292D01*
X17283D01*
X17325Y5333D01*
Y5417D01*
X17283Y5458D01*
X17075Y5708D02*
Y5542D01*
X17200D01*
X17158Y5625D01*
Y5667D01*
X17200Y5708D01*
X17283D01*
X17325Y5667D01*
Y5583D01*
X17283Y5542D01*
X2425Y8583D02*
X2467D01*
X2550Y8667D01*
X2467Y8750D01*
X2425D01*
X2550Y8667D02*
X2675D01*
Y8833D02*
Y8917D01*
Y8875D01*
X2425D01*
X2467Y8833D01*
X13825Y7742D02*
X13575D01*
Y7867D01*
X13617Y7908D01*
X13700D01*
X13742Y7867D01*
Y7742D01*
Y7825D02*
X13825Y7908D01*
Y8117D02*
X13575D01*
X13700Y7992D01*
Y8158D01*
X4517Y4358D02*
X4475Y4317D01*
Y4233D01*
X4517Y4192D01*
X4683D01*
X4725Y4233D01*
Y4317D01*
X4683Y4358D01*
X4517Y4442D02*
X4475Y4483D01*
Y4567D01*
X4517Y4608D01*
X4558D01*
X4600Y4567D01*
Y4525D01*
Y4567D01*
X4642Y4608D01*
X4683D01*
X4725Y4567D01*
Y4483D01*
X4683Y4442D01*
X4725Y5942D02*
X4475D01*
Y6067D01*
X4517Y6108D01*
X4600D01*
X4642Y6067D01*
Y5942D01*
Y6025D02*
X4725Y6108D01*
X4475Y6358D02*
Y6192D01*
X4600D01*
X4558Y6275D01*
Y6317D01*
X4600Y6358D01*
X4683D01*
X4725Y6317D01*
Y6233D01*
X4683Y6192D01*
X4517Y8150D02*
X4475Y8108D01*
Y8025D01*
X4517Y7983D01*
X4683D01*
X4725Y8025D01*
Y8108D01*
X4683Y8150D01*
X4725Y8233D02*
Y8317D01*
Y8275D01*
X4475D01*
X4517Y8233D01*
X3675Y9892D02*
X3425D01*
Y10017D01*
X3467Y10058D01*
X3550D01*
X3592Y10017D01*
Y9892D01*
Y9975D02*
X3675Y10058D01*
X3467Y10142D02*
X3425Y10183D01*
Y10267D01*
X3467Y10308D01*
X3508D01*
X3550Y10267D01*
Y10225D01*
Y10267D01*
X3592Y10308D01*
X3633D01*
X3675Y10267D01*
Y10183D01*
X3633Y10142D01*
X11164Y6091D02*
X11312Y5944D01*
X11371D01*
X11429Y6003D01*
Y6062D01*
X11282Y6209D01*
X11636D02*
X11518Y6091D01*
Y6327D01*
X11488Y6356D01*
X11429D01*
X11371Y6297D01*
Y6238D01*
X15175Y7833D02*
X15425D01*
Y7958D01*
X15383Y8000D01*
X15217D01*
X15175Y7958D01*
Y7833D01*
X15425Y8083D02*
Y8167D01*
Y8125D01*
X15175D01*
X15217Y8083D01*
X20317Y7308D02*
X20275Y7267D01*
Y7183D01*
X20317Y7142D01*
X20483D01*
X20525Y7183D01*
Y7267D01*
X20483Y7308D01*
X20525Y7558D02*
Y7392D01*
X20358Y7558D01*
X20317D01*
X20275Y7517D01*
Y7433D01*
X20317Y7392D01*
X20525Y9192D02*
X20275D01*
Y9317D01*
X20317Y9358D01*
X20400D01*
X20442Y9317D01*
Y9192D01*
Y9275D02*
X20525Y9358D01*
Y9608D02*
Y9442D01*
X20358Y9608D01*
X20317D01*
X20275Y9567D01*
Y9483D01*
X20317Y9442D01*
X21775Y7917D02*
X21525D01*
Y8042D01*
X21567Y8083D01*
X21650D01*
X21692Y8042D01*
Y7917D01*
Y8000D02*
X21775Y8083D01*
X21525Y8333D02*
Y8167D01*
X21775D01*
Y8333D01*
X21650Y8167D02*
Y8250D01*
X21567Y8583D02*
X21525Y8542D01*
Y8458D01*
X21567Y8417D01*
X21608D01*
X21650Y8458D01*
Y8542D01*
X21692Y8583D01*
X21733D01*
X21775Y8542D01*
Y8458D01*
X21733Y8417D01*
X21525Y8833D02*
Y8667D01*
X21775D01*
Y8833D01*
X21650Y8667D02*
Y8750D01*
X21525Y8917D02*
Y9083D01*
Y9000D01*
X21775D01*
X14325Y5592D02*
X14533D01*
X14575Y5633D01*
Y5717D01*
X14533Y5758D01*
X14325D01*
X14367Y5842D02*
X14325Y5883D01*
Y5967D01*
X14367Y6008D01*
X14408D01*
X14450Y5967D01*
Y5925D01*
Y5967D01*
X14492Y6008D01*
X14533D01*
X14575Y5967D01*
Y5883D01*
X14533Y5842D01*
X11225Y4483D02*
X10975D01*
Y4608D01*
X11017Y4650D01*
X11100D01*
X11142Y4608D01*
Y4483D01*
Y4567D02*
X11225Y4650D01*
Y4733D02*
Y4817D01*
Y4775D01*
X10975D01*
X11017Y4733D01*
X10967Y3058D02*
X10925Y3017D01*
Y2933D01*
X10967Y2892D01*
X11133D01*
X11175Y2933D01*
Y3017D01*
X11133Y3058D01*
X10925Y3142D02*
Y3308D01*
X10967D01*
X11133Y3142D01*
X11175D01*
X10967Y3808D02*
X10925Y3767D01*
Y3683D01*
X10967Y3642D01*
X11133D01*
X11175Y3683D01*
Y3767D01*
X11133Y3808D01*
X10925Y4058D02*
X10967Y3975D01*
X11050Y3892D01*
X11133D01*
X11175Y3933D01*
Y4017D01*
X11133Y4058D01*
X11092D01*
X11050Y4017D01*
Y3892D01*
X1625Y742D02*
X1375D01*
Y867D01*
X1417Y908D01*
X1500D01*
X1542Y867D01*
Y742D01*
X1417Y992D02*
X1375Y1033D01*
Y1117D01*
X1417Y1158D01*
X1458D01*
X1500Y1117D01*
Y1075D01*
Y1117D01*
X1542Y1158D01*
X1583D01*
X1625Y1117D01*
Y1033D01*
X1583Y992D01*
X1715Y11442D02*
X1465D01*
Y11567D01*
X1507Y11608D01*
X1590D01*
X1632Y11567D01*
Y11442D01*
X1715Y11858D02*
Y11692D01*
X1548Y11858D01*
X1507D01*
X1465Y11817D01*
Y11733D01*
X1507Y11692D01*
M02*
